  0
SECTION
  2
HEADER
  9
$ACADVER
  1
AC1014
  9
$HANDSEED
  5
FFFF
  9
$MEASUREMENT
 70
     1
  0
ENDSEC
  0
SECTION
  2
TABLES
  0
TABLE
  2
VPORT
  5
8
330
0
100
AcDbSymbolTable
 70
     4
  0
VPORT
  5
2E
330
8
100
AcDbSymbolTableRecord
100
AcDbViewportTableRecord
  2
*ACTIVE
 70
     0
 10
0.0
 20
0.0
 11
1.0
 21
1.0
 12
210.0
 22
148.5
 13
0.0
 23
0.0
 14
10.0
 24
10.0
 15
10.0
 25
10.0
 16
0.0
 26
0.0
 36
1.0
 17
0.0
 27
0.0
 37
0.0
 40
341.0
 41
1.24
 42
50.0
 43
0.0
 44
0.0
 50
0.0
 51
0.0
 71
     0
 72
   100
 73
     1
 74
     3
 75
     0
 76
     0
 77
     0
 78
     0
  0
ENDTAB
  0
TABLE
  2
LTYPE
  5
5
330
0
100
AcDbSymbolTable
 70
     1
  0
LTYPE
  5
14
330
5
100
AcDbSymbolTableRecord
100
AcDbLinetypeTableRecord
  2
BYBLOCK
 70
     0
  3

 72
    65
 73
     0
 40
0.0
  0
LTYPE
  5
15
330
5
100
AcDbSymbolTableRecord
100
AcDbLinetypeTableRecord
  2
BYLAYER
 70
     0
  3

 72
    65
 73
     0
 40
0.0
  0
LTYPE
  5
16
330
5
100
AcDbSymbolTableRecord
100
AcDbLinetypeTableRecord
  2
CONTINUOUS
 70
     0
  3
Solid line
 72
    65
 73
     0
 40
0.0
  0
ENDTAB
  0
TABLE
  2
LAYER
  5
2
100
AcDbSymbolTable
 70
2
  0
LAYER
  5
50
100
AcDbSymbolTableRecord
100
AcDbLayerTableRecord
  2
0
 70
0
  6
CONTINUOUS
  0
LAYER
  5
51
100
AcDbSymbolTableRecord
100
AcDbLayerTableRecord
  2
Layer_1
 70
0
  6
CONTINUOUS
  0
ENDTAB
  0
TABLE
  2
STYLE
  5
3
330
0
100
AcDbSymbolTable
 70
     1
  0
STYLE
  5
11
330
3
100
AcDbSymbolTableRecord
100
AcDbTextStyleTableRecord
  2
STANDARD
 70
     0
 40
0.0
 41
1.0
 50
0.0
 71
     0
 42
2.5
  3
txt
  4

  0
ENDTAB
  0
TABLE
  2
VIEW
  5
6
330
0
100
AcDbSymbolTable
 70
     0
  0
ENDTAB
  0
TABLE
  2
UCS
  5
7
330
0
100
AcDbSymbolTable
 70
     0
  0
ENDTAB
  0
TABLE
  2
APPID
  5
9
330
0
100
AcDbSymbolTable
 70
     2
  0
APPID
  5
12
330
9
100
AcDbSymbolTableRecord
100
AcDbRegAppTableRecord
  2
ACAD
 70
     0
  0
ENDTAB
  0
TABLE
  2
DIMSTYLE
  5
A
330
0
100
AcDbSymbolTable
 70
     1
  0
DIMSTYLE
105
27
330
A
100
AcDbSymbolTableRecord
100
AcDbDimStyleTableRecord
  2
ISO-25
 70
     0
  3

  4

  5

  6

  7

 40
1.0
 41
2.5
 42
0.625
 43
3.75
 44
1.25
 45
0.0
 46
0.0
 47
0.0
 48
0.0
140
2.5
141
2.5
142
0.0
143
0.03937007874016
144
1.0
145
0.0
146
1.0
147
0.625
 71
     0
 72
     0
 73
     0
 74
     0
 75
     0
 76
     0
 77
     1
 78
     8
170
     0
171
     3
172
     1
173
     0
174
     0
175
     0
176
     0
177
     0
178
     0
270
     2
271
     2
272
     2
273
     2
274
     3
340
11
275
     0
280
     0
281
     0
282
     0
283
     0
284
     8
285
     0
286
     0
287
     3
288
     0
  0
ENDTAB
  0
TABLE
  2
BLOCK_RECORD
  5
1
330
0
100
AcDbSymbolTable
 70
     1
  0
BLOCK_RECORD
  5
1F
330
1
100
AcDbSymbolTableRecord
100
AcDbBlockTableRecord
  2
*MODEL_SPACE
  0
BLOCK_RECORD
  5
1B
330
1
100
AcDbSymbolTableRecord
100
AcDbBlockTableRecord
  2
*PAPER_SPACE
  0
ENDTAB
  0
ENDSEC
  0
SECTION
  2
BLOCKS
  0
BLOCK
  5
20
330
1F
100
AcDbEntity
  8
0
100
AcDbBlockBegin
  2
*MODEL_SPACE
 70
     0
 10
0.0
 20
0.0
 30
0.0
  3
*MODEL_SPACE
  1

  0
ENDBLK
  5
21
330
1F
100
AcDbEntity
  8
0
100
AcDbBlockEnd
  0
BLOCK
  5
1C
330
1B
100
AcDbEntity
 67
     1
  8
0
100
AcDbBlockBegin
  2
*PAPER_SPACE
  1

  0
ENDBLK
  5
1D
330
1B
100
AcDbEntity
 67
     1
  8
0
100
AcDbBlockEnd
  0
ENDSEC
  0
SECTION
  2
ENTITIES
  0
LWPOLYLINE
  5
100
100
AcDbEntity
  8
Layer_1
 62
7
100
AcDbPolyline
 90
124
 70
1
 10
-417.283110
 20
168.307580
 30
0.0
 10
-439.804726
 20
187.810250
 30
0.0
 10
-452.936742
 20
225.103070
 30
0.0
 10
-448.484300
 20
247.667060
 30
0.0
 10
-441.798403
 20
260.399100
 30
0.0
 10
-442.921414
 20
271.399850
 30
0.0
 10
-442.622125
 20
278.583010
 30
0.0
 10
-447.790803
 20
282.852510
 30
0.0
 10
-456.024925
 20
284.018330
 30
0.0
 10
-465.368023
 20
290.278410
 30
0.0
 10
-472.248225
 20
310.652370
 30
0.0
 10
-470.532566
 20
313.663040
 30
0.0
 10
-446.145425
 20
308.233910
 30
0.0
 10
-446.682860
 20
309.705650
 30
0.0
 10
-474.155085
 20
321.994320
 30
0.0
 10
-489.697966
 20
340.948610
 30
0.0
 10
-496.889187
 20
352.308398
 30
0.0
 10
-508.423793
 20
365.337398
 30
0.0
 10
-511.513010
 20
378.365033
 30
0.0
 10
-511.321807
 20
389.218117
 30
0.0
 10
-503.220969
 20
399.032333
 30
0.0
 10
-501.172556
 20
397.843947
 30
0.0
 10
-505.269464
 20
387.036337
 30
0.0
 10
-502.082061
 20
371.531341
 30
0.0
 10
-496.827602
 20
366.431908
 30
0.0
 10
-498.033644
 20
377.408975
 30
0.0
 10
-498.804742
 20
395.562950
 30
0.0
 10
-505.024517
 20
408.937844
 30
0.0
 10
-499.902350
 20
430.074537
 30
0.0
 10
-496.288099
 20
435.187403
 30
0.0
 10
-477.200894
 20
444.016838
 30
0.0
 10
-475.865573
 20
442.061402
 30
0.0
 10
-491.845102
 20
426.743378
 30
0.0
 10
-495.213229
 20
409.170386
 30
0.0
 10
-491.511129
 20
397.185589
 30
0.0
 10
-489.978409
 20
397.309613
 30
0.0
 10
-481.001178
 20
404.035816
 30
0.0
 10
-477.898227
 20
412.904665
 30
0.0
 10
-475.574119
 20
412.614105
 30
0.0
 10
-474.400030
 20
399.496558
 30
0.0
 10
-486.316615
 20
385.708253
 30
0.0
 10
-483.230499
 20
355.981898
 30
0.0
 10
-474.437239
 20
343.338750
 30
0.0
 10
-475.003611
 20
350.427720
 30
0.0
 10
-474.344219
 20
362.591318
 30
0.0
 10
-470.210105
 20
370.659044
 30
0.0
 10
-455.801682
 20
380.039349
 30
0.0
 10
-454.166639
 20
378.349529
 30
0.0
 10
-465.327717
 20
362.350508
 30
0.0
 10
-465.298777
 20
344.990330
 30
0.0
 10
-460.349208
 20
332.141500
 30
0.0
 10
-445.301031
 20
325.056660
 30
0.0
 10
-444.830777
 20
324.578140
 30
0.0
 10
-444.490745
 20
339.604610
 30
0.0
 10
-441.914158
 20
346.180960
 30
0.0
 10
-427.973326
 20
363.972208
 30
0.0
 10
-425.948206
 20
362.715338
 30
0.0
 10
-436.437486
 20
340.712560
 30
0.0
 10
-436.789926
 20
326.872570
 30
0.0
 10
-433.395966
 20
314.469710
 30
0.0
 10
-427.816926
 20
309.538170
 30
0.0
 10
-423.774696
 20
307.098060
 30
0.0
 10
-417.440820
 20
307.003660
 30
0.0
 10
-410.794610
 20
307.096960
 30
0.0
 10
-406.751450
 20
309.540220
 30
0.0
 10
-401.177630
 20
314.460850
 30
0.0
 10
-397.779390
 20
326.864240
 30
0.0
 10
-398.129760
 20
340.712490
 30
0.0
 10
-408.621100
 20
362.718368
 30
0.0
 10
-406.595390
 20
363.972038
 30
0.0
 10
-392.654120
 20
346.181920
 30
0.0
 10
-390.078570
 20
339.605580
 30
0.0
 10
-389.738540
 20
324.580140
 30
0.0
 10
-389.263110
 20
325.059700
 30
0.0
 10
-374.218040
 20
332.143500
 30
0.0
 10
-369.269500
 20
344.990260
 30
0.0
 10
-369.240600
 20
362.352498
 30
0.0
 10
-380.402710
 20
378.349459
 30
0.0
 10
-378.764570
 20
380.038244
 30
0.0
 10
-364.356150
 20
370.655873
 30
0.0
 10
-360.224100
 20
362.589178
 30
0.0
 10
-359.564710
 20
350.436960
 30
0.0
 10
-360.134180
 20
343.341780
 30
0.0
 10
-351.335750
 20
355.985968
 30
0.0
 10
-348.251700
 20
385.708183
 30
0.0
 10
-360.174490
 20
399.502690
 30
0.0
 10
-358.994200
 20
412.616101
 30
0.0
 10
-356.669200
 20
412.901671
 30
0.0
 10
-353.568170
 20
404.039881
 30
0.0
 10
-344.588830
 20
397.309000
 30
0.0
 10
-343.058220
 20
397.187586
 30
0.0
 10
-339.355090
 20
409.169284
 30
0.0
 10
-342.727490
 20
426.747539
 30
0.0
 10
-358.700680
 20
442.062365
 30
0.0
 10
-357.370530
 20
444.014701
 30
0.0
 10
-338.278150
 20
435.185266
 30
0.0
 10
-334.667000
 20
430.073433
 30
0.0
 10
-329.542800
 20
408.942115
 30
0.0
 10
-335.763580
 20
395.560811
 30
0.0
 10
-336.560430
 20
377.269422
 30
0.0
 10
-337.740720
 20
366.435978
 30
0.0
 10
-332.494530
 20
371.551943
 30
0.0
 10
-329.298860
 20
387.037301
 30
0.0
 10
-333.396800
 20
397.843877
 30
0.0
 10
-331.350410
 20
399.032435
 30
0.0
 10
-323.246510
 20
389.215978
 30
0.0
 10
-323.058410
 20
378.365995
 30
0.0
 10
-326.146590
 20
365.334238
 30
0.0
 10
-337.703080
 20
352.284948
 30
0.0
 10
-344.891380
 20
340.913470
 30
0.0
 10
-360.415360
 20
321.992660
 30
0.0
 10
-387.889590
 20
309.701450
 30
0.0
 10
-388.424580
 20
308.232870
 30
0.0
 10
-364.037280
 20
313.659900
 30
0.0
 10
-362.321130
 20
310.655400
 30
0.0
 10
-369.205600
 20
290.275280
 30
0.0
 10
-378.546490
 20
284.018260
 30
0.0
 10
-386.778550
 20
282.851410
 30
0.0
 10
-391.946190
 20
278.579830
 30
0.0
 10
-391.645440
 20
271.389580
 30
0.0
 10
-392.770950
 20
260.400070
 30
0.0
 10
-386.085050
 20
247.662860
 30
0.0
 10
-381.632610
 20
225.101960
 30
0.0
 10
-394.766690
 20
187.808120
 30
0.0
  0
LWPOLYLINE
  5
101
100
AcDbEntity
  8
Layer_1
 62
7
100
AcDbPolyline
 90
124
 70
1
 10
-196.545019
 20
173.598503
 30
0.0
 10
-219.066639
 20
193.101173
 30
0.0
 10
-232.198655
 20
230.393993
 30
0.0
 10
-227.746213
 20
252.957983
 30
0.0
 10
-221.060316
 20
265.690023
 30
0.0
 10
-222.183327
 20
276.690773
 30
0.0
 10
-221.884038
 20
283.873933
 30
0.0
 10
-227.052716
 20
288.143433
 30
0.0
 10
-235.286838
 20
289.309253
 30
0.0
 10
-244.629936
 20
295.569333
 30
0.0
 10
-251.510138
 20
315.943293
 30
0.0
 10
-249.794479
 20
318.953963
 30
0.0
 10
-225.407338
 20
313.524833
 30
0.0
 10
-225.944773
 20
314.996573
 30
0.0
 10
-253.416998
 20
327.285233
 30
0.0
 10
-268.959879
 20
346.239523
 30
0.0
 10
-276.151100
 20
357.599313
 30
0.0
 10
-287.685706
 20
370.628321
 30
0.0
 10
-290.774923
 20
383.655951
 30
0.0
 10
-290.583720
 20
394.509035
 30
0.0
 10
-282.482882
 20
404.323251
 30
0.0
 10
-280.434469
 20
403.134865
 30
0.0
 10
-284.531377
 20
392.327255
 30
0.0
 10
-281.343974
 20
376.822259
 30
0.0
 10
-276.089515
 20
371.722828
 30
0.0
 10
-277.295557
 20
382.699893
 30
0.0
 10
-278.066655
 20
400.853868
 30
0.0
 10
-284.286430
 20
414.228762
 30
0.0
 10
-279.164263
 20
435.365455
 30
0.0
 10
-275.550012
 20
440.478321
 30
0.0
 10
-256.462807
 20
449.307756
 30
0.0
 10
-255.127486
 20
447.352320
 30
0.0
 10
-271.107015
 20
432.034296
 30
0.0
 10
-274.475142
 20
414.461304
 30
0.0
 10
-270.773042
 20
402.476507
 30
0.0
 10
-269.240322
 20
402.600531
 30
0.0
 10
-260.263091
 20
409.326734
 30
0.0
 10
-257.160140
 20
418.195583
 30
0.0
 10
-254.836032
 20
417.905023
 30
0.0
 10
-253.661943
 20
404.787476
 30
0.0
 10
-265.578528
 20
390.999171
 30
0.0
 10
-262.492412
 20
361.272821
 30
0.0
 10
-253.699152
 20
348.629663
 30
0.0
 10
-254.265524
 20
355.718633
 30
0.0
 10
-253.606132
 20
367.882237
 30
0.0
 10
-249.472018
 20
375.949962
 30
0.0
 10
-235.063595
 20
385.330267
 30
0.0
 10
-233.428552
 20
383.640447
 30
0.0
 10
-244.589630
 20
367.641424
 30
0.0
 10
-244.560690
 20
350.281243
 30
0.0
 10
-239.611121
 20
337.432413
 30
0.0
 10
-224.562944
 20
330.347573
 30
0.0
 10
-224.092690
 20
329.869053
 30
0.0
 10
-223.752658
 20
344.895523
 30
0.0
 10
-221.176071
 20
351.471873
 30
0.0
 10
-207.235237
 20
369.263126
 30
0.0
 10
-205.210121
 20
368.006260
 30
0.0
 10
-215.699403
 20
346.003473
 30
0.0
 10
-216.051836
 20
332.163483
 30
0.0
 10
-212.657883
 20
319.760633
 30
0.0
 10
-207.078841
 20
314.829093
 30
0.0
 10
-203.036611
 20
312.388983
 30
0.0
 10
-196.702729
 20
312.294583
 30
0.0
 10
-190.056519
 20
312.387883
 30
0.0
 10
-186.013359
 20
314.831143
 30
0.0
 10
-180.439539
 20
319.751773
 30
0.0
 10
-177.041299
 20
332.155153
 30
0.0
 10
-177.391669
 20
346.003403
 30
0.0
 10
-187.883009
 20
368.009291
 30
0.0
 10
-185.857299
 20
369.262961
 30
0.0
 10
-171.916029
 20
351.472833
 30
0.0
 10
-169.340479
 20
344.896493
 30
0.0
 10
-169.000449
 20
329.871053
 30
0.0
 10
-168.525019
 20
330.350613
 30
0.0
 10
-153.479949
 20
337.434413
 30
0.0
 10
-148.531409
 20
350.281173
 30
0.0
 10
-148.502509
 20
367.643420
 30
0.0
 10
-159.664619
 20
383.640377
 30
0.0
 10
-158.026479
 20
385.329162
 30
0.0
 10
-143.618059
 20
375.946791
 30
0.0
 10
-139.486009
 20
367.880100
 30
0.0
 10
-138.826619
 20
355.727873
 30
0.0
 10
-139.396089
 20
348.632693
 30
0.0
 10
-130.597659
 20
361.276884
 30
0.0
 10
-127.513609
 20
390.999101
 30
0.0
 10
-139.436399
 20
404.793608
 30
0.0
 10
-138.256109
 20
417.907019
 30
0.0
 10
-135.931109
 20
418.192589
 30
0.0
 10
-132.830079
 20
409.330799
 30
0.0
 10
-123.850739
 20
402.599918
 30
0.0
 10
-122.320129
 20
402.478504
 30
0.0
 10
-118.616999
 20
414.460202
 30
0.0
 10
-121.989399
 20
432.038457
 30
0.0
 10
-137.962589
 20
447.353283
 30
0.0
 10
-136.632439
 20
449.305619
 30
0.0
 10
-117.540059
 20
440.476184
 30
0.0
 10
-113.928909
 20
435.364351
 30
0.0
 10
-108.804709
 20
414.233033
 30
0.0
 10
-115.025489
 20
400.851729
 30
0.0
 10
-115.822339
 20
382.560340
 30
0.0
 10
-117.002629
 20
371.726893
 30
0.0
 10
-111.756439
 20
376.842861
 30
0.0
 10
-108.560769
 20
392.328219
 30
0.0
 10
-112.658709
 20
403.134795
 30
0.0
 10
-110.612319
 20
404.323353
 30
0.0
 10
-102.508419
 20
394.506896
 30
0.0
 10
-102.320319
 20
383.656913
 30
0.0
 10
-105.408499
 20
370.625152
 30
0.0
 10
-116.964989
 20
357.575863
 30
0.0
 10
-124.153289
 20
346.204383
 30
0.0
 10
-139.677269
 20
327.283573
 30
0.0
 10
-167.151499
 20
314.992373
 30
0.0
 10
-167.686489
 20
313.523793
 30
0.0
 10
-143.299189
 20
318.950823
 30
0.0
 10
-141.583039
 20
315.946323
 30
0.0
 10
-148.467509
 20
295.566203
 30
0.0
 10
-157.808399
 20
289.309183
 30
0.0
 10
-166.040459
 20
288.142333
 30
0.0
 10
-171.208099
 20
283.870753
 30
0.0
 10
-170.907349
 20
276.680503
 30
0.0
 10
-172.032859
 20
265.690993
 30
0.0
 10
-165.346959
 20
252.953783
 30
0.0
 10
-160.894519
 20
230.392883
 30
0.0
 10
-174.028599
 20
193.099043
 30
0.0
  0
LWPOLYLINE
  5
102
100
AcDbEntity
  8
Layer_1
 62
7
100
AcDbPolyline
 90
4
 70
1
 10
-196.545019
 20
204.019373
 30
0.0
 10
-198.154219
 20
209.906353
 30
0.0
 10
-196.546049
 20
211.499023
 30
0.0
 10
-194.937879
 20
209.903253
 30
0.0
  0
LWPOLYLINE
  5
103
100
AcDbEntity
  8
Layer_1
 62
7
100
AcDbPolyline
 90
4
 70
1
 10
-196.547079
 20
271.435413
 30
0.0
 10
-196.865409
 20
271.830223
 30
0.0
 10
-196.545019
 20
272.098933
 30
0.0
 10
-196.230829
 20
271.828153
 30
0.0
  0
LWPOLYLINE
  5
104
100
AcDbEntity
  8
Layer_1
 62
7
100
AcDbPolyline
 90
4
 70
1
 10
-196.547079
 20
292.292023
 30
0.0
 10
-196.749659
 20
291.843463
 30
0.0
 10
-196.547079
 20
291.607823
 30
0.0
 10
-196.346579
 20
291.843463
 30
0.0
  0
LWPOLYLINE
  5
105
100
AcDbEntity
  8
Layer_1
 62
7
100
AcDbPolyline
 90
4
 70
1
 10
-196.545019
 20
290.377923
 30
0.0
 10
-196.695909
 20
290.251833
 30
0.0
 10
-196.546049
 20
290.067863
 30
0.0
 10
-196.396189
 20
290.249763
 30
0.0
  0
LWPOLYLINE
  5
106
100
AcDbEntity
  8
Layer_1
 62
7
100
AcDbPolyline
 90
4
 70
1
 10
-196.545019
 20
288.705673
 30
0.0
 10
-196.626619
 20
288.640573
 30
0.0
 10
-196.547019
 20
288.543473
 30
0.0
 10
-196.463319
 20
288.641673
 30
0.0
  0
LWPOLYLINE
  5
107
100
AcDbEntity
  8
Layer_1
 62
7
100
AcDbPolyline
 90
4
 70
1
 10
-196.546049
 20
287.035493
 30
0.0
 10
-196.633949
 20
286.961093
 30
0.0
 10
-196.547149
 20
286.859803
 30
0.0
 10
-196.459249
 20
286.961093
 30
0.0
  0
LWPOLYLINE
  5
108
100
AcDbEntity
  8
Layer_1
 62
7
100
AcDbPolyline
 90
4
 70
1
 10
-237.192666
 20
301.242373
 30
0.0
 10
-237.152356
 20
301.122493
 30
0.0
 10
-233.132965
 20
298.436343
 30
0.0
 10
-234.261577
 20
299.858483
 30
0.0
  0
LWPOLYLINE
  5
109
100
AcDbEntity
  8
Layer_1
 62
7
100
AcDbPolyline
 90
4
 70
1
 10
-159.956039
 20
298.442553
 30
0.0
 10
-155.940779
 20
301.120423
 30
0.0
 10
-155.900479
 20
301.242373
 30
0.0
 10
-158.829499
 20
299.857453
 30
0.0
  0
LWPOLYLINE
  5
10a
100
AcDbEntity
  8
Layer_1
 62
7
100
AcDbPolyline
 90
124
 70
1
 10
9.074047
 20
167.550884
 30
0.0
 10
-13.447570
 20
187.053554
 30
0.0
 10
-26.579590
 20
224.346374
 30
0.0
 10
-22.127140
 20
246.910364
 30
0.0
 10
-15.441250
 20
259.642404
 30
0.0
 10
-16.564260
 20
270.643154
 30
0.0
 10
-16.264970
 20
277.826314
 30
0.0
 10
-21.433650
 20
282.095814
 30
0.0
 10
-29.667770
 20
283.261634
 30
0.0
 10
-39.010870
 20
289.521714
 30
0.0
 10
-45.891070
 20
309.895674
 30
0.0
 10
-44.175410
 20
312.906344
 30
0.0
 10
-19.788270
 20
307.477214
 30
0.0
 10
-20.325700
 20
308.948954
 30
0.0
 10
-47.797930
 20
321.237614
 30
0.0
 10
-63.340810
 20
340.191904
 30
0.0
 10
-70.532030
 20
351.551694
 30
0.0
 10
-82.066640
 20
364.580707
 30
0.0
 10
-85.155850
 20
377.608339
 30
0.0
 10
-84.964650
 20
388.461419
 30
0.0
 10
-76.863810
 20
398.275639
 30
0.0
 10
-74.815400
 20
397.087249
 30
0.0
 10
-78.912310
 20
386.279639
 30
0.0
 10
-75.724900
 20
370.774637
 30
0.0
 10
-70.470450
 20
365.675207
 30
0.0
 10
-71.676490
 20
376.652279
 30
0.0
 10
-72.447590
 20
394.806249
 30
0.0
 10
-78.667360
 20
408.181149
 30
0.0
 10
-73.545190
 20
429.317839
 30
0.0
 10
-69.930940
 20
434.430709
 30
0.0
 10
-50.843740
 20
443.260139
 30
0.0
 10
-49.508420
 20
441.304699
 30
0.0
 10
-65.487950
 20
425.986679
 30
0.0
 10
-68.856070
 20
408.413689
 30
0.0
 10
-65.153970
 20
396.428889
 30
0.0
 10
-63.621250
 20
396.552919
 30
0.0
 10
-54.644020
 20
403.279119
 30
0.0
 10
-51.541070
 20
412.147969
 30
0.0
 10
-49.216960
 20
411.857409
 30
0.0
 10
-48.042870
 20
398.739859
 30
0.0
 10
-59.959460
 20
384.951559
 30
0.0
 10
-56.873340
 20
355.225207
 30
0.0
 10
-48.080080
 20
342.582044
 30
0.0
 10
-48.646450
 20
349.671014
 30
0.0
 10
-47.987060
 20
361.834617
 30
0.0
 10
-43.852950
 20
369.902347
 30
0.0
 10
-29.444530
 20
379.282649
 30
0.0
 10
-27.809480
 20
377.592829
 30
0.0
 10
-38.970560
 20
361.593807
 30
0.0
 10
-38.941660
 20
344.233624
 30
0.0
 10
-33.992090
 20
331.384794
 30
0.0
 10
-18.943920
 20
324.299954
 30
0.0
 10
-18.473660
 20
323.821434
 30
0.0
 10
-18.133630
 20
338.847904
 30
0.0
 10
-15.557040
 20
345.424254
 30
0.0
 10
-1.616210
 20
363.215507
 30
0.0
 10
0.408910
 20
361.958637
 30
0.0
 10
-10.080370
 20
339.955854
 30
0.0
 10
-10.432810
 20
326.115864
 30
0.0
 10
-7.038850
 20
313.713014
 30
0.0
 10
-1.459810
 20
308.781474
 30
0.0
 10
2.582420
 20
306.341364
 30
0.0
 10
8.916297
 20
306.246964
 30
0.0
 10
15.562507
 20
306.340264
 30
0.0
 10
19.605667
 20
308.783524
 30
0.0
 10
25.179487
 20
313.704154
 30
0.0
 10
28.577727
 20
326.107534
 30
0.0
 10
28.227357
 20
339.955784
 30
0.0
 10
17.736017
 20
361.961667
 30
0.0
 10
19.761727
 20
363.215337
 30
0.0
 10
33.702997
 20
345.425214
 30
0.0
 10
36.278547
 20
338.848874
 30
0.0
 10
36.618577
 20
323.823434
 30
0.0
 10
37.094007
 20
324.302994
 30
0.0
 10
52.139077
 20
331.386794
 30
0.0
 10
57.087617
 20
344.233554
 30
0.0
 10
57.116517
 20
361.595797
 30
0.0
 10
45.954407
 20
377.592759
 30
0.0
 10
47.592547
 20
379.281549
 30
0.0
 10
62.000967
 20
369.899167
 30
0.0
 10
66.133017
 20
361.832477
 30
0.0
 10
66.792407
 20
349.680254
 30
0.0
 10
66.222937
 20
342.585074
 30
0.0
 10
75.021367
 20
355.229267
 30
0.0
 10
78.105417
 20
384.951489
 30
0.0
 10
66.182627
 20
398.745989
 30
0.0
 10
67.362917
 20
411.859399
 30
0.0
 10
69.687917
 20
412.144969
 30
0.0
 10
72.788947
 20
403.283179
 30
0.0
 10
81.768287
 20
396.552299
 30
0.0
 10
83.298897
 20
396.430889
 30
0.0
 10
87.002027
 20
408.412589
 30
0.0
 10
83.629627
 20
425.990839
 30
0.0
 10
67.656437
 20
441.305669
 30
0.0
 10
68.986587
 20
443.257999
 30
0.0
 10
88.078967
 20
434.428569
 30
0.0
 10
91.690117
 20
429.316739
 30
0.0
 10
96.814317
 20
408.185419
 30
0.0
 10
90.593537
 20
394.804109
 30
0.0
 10
89.796687
 20
376.512719
 30
0.0
 10
88.616397
 20
365.679277
 30
0.0
 10
93.862587
 20
370.795247
 30
0.0
 10
97.058257
 20
386.280599
 30
0.0
 10
92.960317
 20
397.087179
 30
0.0
 10
95.006707
 20
398.275739
 30
0.0
 10
103.110607
 20
388.459279
 30
0.0
 10
103.298707
 20
377.609299
 30
0.0
 10
100.210527
 20
364.577537
 30
0.0
 10
88.654037
 20
351.528244
 30
0.0
 10
81.465737
 20
340.156764
 30
0.0
 10
65.941757
 20
321.235954
 30
0.0
 10
38.467527
 20
308.944754
 30
0.0
 10
37.932537
 20
307.476174
 30
0.0
 10
62.319837
 20
312.903204
 30
0.0
 10
64.035987
 20
309.898704
 30
0.0
 10
57.151517
 20
289.518584
 30
0.0
 10
47.810627
 20
283.261564
 30
0.0
 10
39.578567
 20
282.094714
 30
0.0
 10
34.410927
 20
277.823134
 30
0.0
 10
34.711677
 20
270.632884
 30
0.0
 10
33.586167
 20
259.643374
 30
0.0
 10
40.272067
 20
246.906164
 30
0.0
 10
44.724507
 20
224.345264
 30
0.0
 10
31.590427
 20
187.051424
 30
0.0
  0
LWPOLYLINE
  5
10b
100
AcDbEntity
  8
Layer_1
 62
7
100
AcDbPolyline
 90
4
 70
1
 10
20.689167
 20
187.606944
 30
0.0
 10
23.665047
 20
190.179404
 30
0.0
 10
23.442887
 20
193.202054
 30
0.0
 10
22.484057
 20
194.143344
 30
0.0
  0
LWPOLYLINE
  5
10c
100
AcDbEntity
  8
Layer_1
 62
7
100
AcDbPolyline
 90
4
 70
1
 10
-4.360247
 20
194.143344
 30
0.0
 10
-2.563507
 20
187.596414
 30
0.0
 10
-5.529735
 20
190.165754
 30
0.0
 10
-5.313726
 20
193.188824
 30
0.0
  0
LWPOLYLINE
  5
10d
100
AcDbEntity
  8
Layer_1
 62
7
100
AcDbPolyline
 90
4
 70
1
 10
9.062657
 20
192.969714
 30
0.0
 10
12.143017
 20
204.243204
 30
0.0
 10
9.063687
 20
207.288224
 30
0.0
 10
5.983777
 20
204.240344
 30
0.0
  0
LWPOLYLINE
  5
10e
100
AcDbEntity
  8
Layer_1
 62
7
100
AcDbPolyline
 90
4
 70
1
 10
-3.971455
 20
212.285094
 30
0.0
 10
0.111267
 20
216.323324
 30
0.0
 10
-1.936156
 20
216.510394
 30
0.0
 10
-3.434772
 20
219.842494
 30
0.0
  0
LWPOLYLINE
  5
10f
100
AcDbEntity
  8
Layer_1
 62
7
100
AcDbPolyline
 90
4
 70
1
 10
22.092337
 20
212.279254
 30
0.0
 10
21.561117
 20
219.846624
 30
0.0
 10
20.058367
 20
216.507294
 30
0.0
 10
18.017147
 20
216.323324
 30
0.0
  0
LWPOLYLINE
  5
110
100
AcDbEntity
  8
Layer_1
 62
7
100
AcDbPolyline
 90
3
 70
1
 10
34.718977
 20
218.792424
 30
0.0
 10
36.614467
 20
224.178144
 30
0.0
 10
33.934527
 20
229.881154
 30
0.0
  0
LWPOLYLINE
  5
111
100
AcDbEntity
  8
Layer_1
 62
7
100
AcDbPolyline
 90
3
 70
1
 10
-16.593657
 20
218.787264
 30
0.0
 10
-15.807143
 20
229.881154
 30
0.0
 10
-18.490182
 20
224.178144
 30
0.0
  0
LWPOLYLINE
  5
112
100
AcDbEntity
  8
Layer_1
 62
7
100
AcDbPolyline
 90
4
 70
1
 10
9.063367
 20
263.328144
 30
0.0
 10
11.179327
 20
265.987474
 30
0.0
 10
9.064727
 20
267.785824
 30
0.0
 10
6.947027
 20
265.988514
 30
0.0
  0
LWPOLYLINE
  5
113
100
AcDbEntity
  8
Layer_1
 62
7
100
AcDbPolyline
 90
4
 70
1
 10
9.066787
 20
281.031524
 30
0.0
 10
8.951037
 20
280.932324
 30
0.0
 10
9.058527
 20
280.802094
 30
0.0
 10
9.174277
 20
280.934394
 30
0.0
  0
LWPOLYLINE
  5
114
100
AcDbEntity
  8
Layer_1
 62
7
100
AcDbPolyline
 90
4
 70
1
 10
9.018217
 20
279.300364
 30
0.0
 10
9.062617
 20
279.247664
 30
0.0
 10
9.105017
 20
279.298264
 30
0.0
 10
9.063717
 20
279.334464
 30
0.0
  0
LWPOLYLINE
  5
115
100
AcDbEntity
  8
Layer_1
 62
7
100
AcDbPolyline
 90
6
 70
1
 10
9.062657
 20
289.495084
 30
0.0
 10
11.626837
 20
283.691824
 30
0.0
 10
11.489377
 20
282.348234
 30
0.0
 10
9.174277
 20
284.285074
 30
0.0
 10
6.647297
 20
282.227314
 30
0.0
 10
6.496407
 20
283.694924
 30
0.0
  0
LWPOLYLINE
  5
116
100
AcDbEntity
  8
Layer_1
 62
7
100
AcDbPolyline
 90
4
 70
1
 10
24.676497
 20
286.278664
 30
0.0
 10
26.029967
 20
287.412884
 30
0.0
 10
26.297447
 20
295.427004
 30
0.0
 10
25.684897
 20
295.906064
 30
0.0
  0
LWPOLYLINE
  5
117
100
AcDbEntity
  8
Layer_1
 62
7
100
AcDbPolyline
 90
4
 70
1
 10
-7.914085
 20
287.422864
 30
0.0
 10
-6.549828
 20
286.281844
 30
0.0
 10
-7.558295
 20
295.909344
 30
0.0
 10
-8.175102
 20
295.427004
 30
0.0
  0
LWPOLYLINE
  5
118
100
AcDbEntity
  8
Layer_1
 62
7
100
AcDbPolyline
 90
5
 70
1
 10
-24.061937
 20
290.101774
 30
0.0
 10
-27.769202
 20
294.759884
 30
0.0
 10
-33.796741
 20
297.610354
 30
0.0
 10
-32.671230
 20
294.312364
 30
0.0
 10
-26.980622
 20
290.519314
 30
0.0
  0
LWPOLYLINE
  5
119
100
AcDbEntity
  8
Layer_1
 62
7
100
AcDbPolyline
 90
5
 70
1
 10
42.186827
 20
290.108134
 30
0.0
 10
45.112137
 20
290.521384
 30
0.0
 10
50.798607
 20
294.316494
 30
0.0
 10
51.921017
 20
297.610354
 30
0.0
 10
45.897617
 20
294.760914
 30
0.0
  0
LWPOLYLINE
  5
11a
100
AcDbEntity
  8
Layer_1
 62
7
100
AcDbPolyline
 90
124
 70
1
 10
222.252622
 20
169.818742
 30
0.0
 10
199.731005
 20
189.321412
 30
0.0
 10
186.598985
 20
226.614232
 30
0.0
 10
191.051435
 20
249.178222
 30
0.0
 10
197.737325
 20
261.910262
 30
0.0
 10
196.614315
 20
272.911012
 30
0.0
 10
196.913605
 20
280.094172
 30
0.0
 10
191.744925
 20
284.363672
 30
0.0
 10
183.510805
 20
285.529492
 30
0.0
 10
174.167705
 20
291.789572
 30
0.0
 10
167.287505
 20
312.163532
 30
0.0
 10
169.003165
 20
315.174202
 30
0.0
 10
193.390305
 20
309.745072
 30
0.0
 10
192.852875
 20
311.216812
 30
0.0
 10
165.380645
 20
323.505472
 30
0.0
 10
149.837765
 20
342.459762
 30
0.0
 10
142.646545
 20
353.819552
 30
0.0
 10
131.111935
 20
366.848565
 30
0.0
 10
128.022725
 20
379.876197
 30
0.0
 10
128.213925
 20
390.729277
 30
0.0
 10
136.314765
 20
400.543497
 30
0.0
 10
138.363175
 20
399.355107
 30
0.0
 10
134.266265
 20
388.547497
 30
0.0
 10
137.453675
 20
373.042495
 30
0.0
 10
142.708125
 20
367.943065
 30
0.0
 10
141.502085
 20
378.920137
 30
0.0
 10
140.730985
 20
397.074107
 30
0.0
 10
134.511215
 20
410.449007
 30
0.0
 10
139.633385
 20
431.585697
 30
0.0
 10
143.247635
 20
436.698567
 30
0.0
 10
162.334835
 20
445.527997
 30
0.0
 10
163.670155
 20
443.572557
 30
0.0
 10
147.690625
 20
428.254537
 30
0.0
 10
144.322505
 20
410.681547
 30
0.0
 10
148.024605
 20
398.696747
 30
0.0
 10
149.557325
 20
398.820777
 30
0.0
 10
158.534555
 20
405.546977
 30
0.0
 10
161.637505
 20
414.415827
 30
0.0
 10
163.961615
 20
414.125267
 30
0.0
 10
165.135705
 20
401.007717
 30
0.0
 10
153.219115
 20
387.219417
 30
0.0
 10
156.305235
 20
357.493065
 30
0.0
 10
165.098495
 20
344.849902
 30
0.0
 10
164.532125
 20
351.938872
 30
0.0
 10
165.191515
 20
364.102475
 30
0.0
 10
169.325625
 20
372.170205
 30
0.0
 10
183.734045
 20
381.550507
 30
0.0
 10
185.369095
 20
379.860687
 30
0.0
 10
174.208015
 20
363.861665
 30
0.0
 10
174.236915
 20
346.501482
 30
0.0
 10
179.186485
 20
333.652652
 30
0.0
 10
194.234655
 20
326.567812
 30
0.0
 10
194.704915
 20
326.089292
 30
0.0
 10
195.044945
 20
341.115762
 30
0.0
 10
197.621535
 20
347.692112
 30
0.0
 10
211.562365
 20
365.483365
 30
0.0
 10
213.587485
 20
364.226495
 30
0.0
 10
203.098205
 20
342.223712
 30
0.0
 10
202.745765
 20
328.383722
 30
0.0
 10
206.139725
 20
315.980872
 30
0.0
 10
211.718765
 20
311.049332
 30
0.0
 10
215.760995
 20
308.609222
 30
0.0
 10
222.094872
 20
308.514822
 30
0.0
 10
228.741082
 20
308.608122
 30
0.0
 10
232.784242
 20
311.051382
 30
0.0
 10
238.358062
 20
315.972012
 30
0.0
 10
241.756302
 20
328.375392
 30
0.0
 10
241.405932
 20
342.223642
 30
0.0
 10
230.914592
 20
364.229525
 30
0.0
 10
232.940302
 20
365.483195
 30
0.0
 10
246.881572
 20
347.693072
 30
0.0
 10
249.457122
 20
341.116732
 30
0.0
 10
249.797152
 20
326.091292
 30
0.0
 10
250.272582
 20
326.570852
 30
0.0
 10
265.317652
 20
333.654652
 30
0.0
 10
270.266192
 20
346.501412
 30
0.0
 10
270.295092
 20
363.863655
 30
0.0
 10
259.132982
 20
379.860617
 30
0.0
 10
260.771122
 20
381.549407
 30
0.0
 10
275.179542
 20
372.167025
 30
0.0
 10
279.311592
 20
364.100335
 30
0.0
 10
279.970982
 20
351.948112
 30
0.0
 10
279.401512
 20
344.852932
 30
0.0
 10
288.199942
 20
357.497125
 30
0.0
 10
291.283992
 20
387.219347
 30
0.0
 10
279.361202
 20
401.013847
 30
0.0
 10
280.541492
 20
414.127257
 30
0.0
 10
282.866492
 20
414.412827
 30
0.0
 10
285.967522
 20
405.551037
 30
0.0
 10
294.946862
 20
398.820157
 30
0.0
 10
296.477472
 20
398.698747
 30
0.0
 10
300.180602
 20
410.680447
 30
0.0
 10
296.808202
 20
428.258697
 30
0.0
 10
280.835012
 20
443.573527
 30
0.0
 10
282.165162
 20
445.525857
 30
0.0
 10
301.257542
 20
436.696427
 30
0.0
 10
304.868692
 20
431.584597
 30
0.0
 10
309.992892
 20
410.453277
 30
0.0
 10
303.772112
 20
397.071967
 30
0.0
 10
302.975262
 20
378.780577
 30
0.0
 10
301.794972
 20
367.947135
 30
0.0
 10
307.041162
 20
373.063105
 30
0.0
 10
310.236832
 20
388.548457
 30
0.0
 10
306.138892
 20
399.355037
 30
0.0
 10
308.185282
 20
400.543597
 30
0.0
 10
316.289182
 20
390.727137
 30
0.0
 10
316.477282
 20
379.877157
 30
0.0
 10
313.389102
 20
366.845395
 30
0.0
 10
301.832612
 20
353.796102
 30
0.0
 10
294.644312
 20
342.424622
 30
0.0
 10
279.120332
 20
323.503812
 30
0.0
 10
251.646102
 20
311.212612
 30
0.0
 10
251.111112
 20
309.744032
 30
0.0
 10
275.498412
 20
315.171062
 30
0.0
 10
277.214562
 20
312.166562
 30
0.0
 10
270.330092
 20
291.786442
 30
0.0
 10
260.989202
 20
285.529422
 30
0.0
 10
252.757142
 20
284.362572
 30
0.0
 10
247.589502
 20
280.090992
 30
0.0
 10
247.890252
 20
272.900742
 30
0.0
 10
246.764742
 20
261.911232
 30
0.0
 10
253.450642
 20
249.174022
 30
0.0
 10
257.903082
 20
226.613122
 30
0.0
 10
244.769002
 20
189.319282
 30
0.0
  0
LWPOLYLINE
  5
11b
100
AcDbEntity
  8
Layer_1
 62
7
100
AcDbPolyline
 90
4
 70
1
 10
231.487182
 20
186.151822
 30
0.0
 10
238.234052
 20
192.005732
 30
0.0
 10
237.952932
 20
195.842182
 30
0.0
 10
234.943302
 20
198.818752
 30
0.0
  0
LWPOLYLINE
  5
11c
100
AcDbEntity
  8
Layer_1
 62
7
100
AcDbPolyline
 90
4
 70
1
 10
212.999419
 20
186.143562
 30
0.0
 10
209.535031
 20
198.779472
 30
0.0
 10
206.525396
 20
195.807042
 30
0.0
 10
206.256677
 20
191.974722
 30
0.0
  0
LWPOLYLINE
  5
11d
100
AcDbEntity
  8
Layer_1
 62
7
100
AcDbPolyline
 90
4
 70
1
 10
222.243402
 20
190.479902
 30
0.0
 10
226.732952
 20
206.909212
 30
0.0
 10
222.242262
 20
211.354422
 30
0.0
 10
217.753652
 20
206.906112
 30
0.0
  0
LWPOLYLINE
  5
11e
100
AcDbEntity
  8
Layer_1
 62
7
100
AcDbPolyline
 90
4
 70
1
 10
207.600266
 20
211.138412
 30
0.0
 10
216.182687
 20
219.621612
 30
0.0
 10
212.127120
 20
219.995752
 30
0.0
 10
208.760919
 20
227.481602
 30
0.0
  0
LWPOLYLINE
  5
11f
100
AcDbEntity
  8
Layer_1
 62
7
100
AcDbPolyline
 90
3
 70
1
 10
197.432228
 20
214.716652
 30
0.0
 10
199.153236
 20
238.967202
 30
0.0
 10
193.291430
 20
226.498862
 30
0.0
  0
LWPOLYLINE
  5
120
100
AcDbEntity
  8
Layer_1
 62
7
100
AcDbPolyline
 90
4
 70
1
 10
236.873932
 20
211.121872
 30
0.0
 10
235.723612
 20
227.479532
 30
0.0
 10
232.355342
 20
219.983352
 30
0.0
 10
228.303912
 20
219.618512
 30
0.0
  0
LWPOLYLINE
  5
121
100
AcDbEntity
  8
Layer_1
 62
7
100
AcDbPolyline
 90
3
 70
1
 10
247.050052
 20
214.708222
 30
0.0
 10
251.196572
 20
226.498712
 30
0.0
 10
245.333362
 20
238.965132
 30
0.0
  0
LWPOLYLINE
  5
122
100
AcDbEntity
  8
Layer_1
 62
7
100
AcDbPolyline
 90
4
 70
1
 10
217.546942
 20
253.207162
 30
0.0
 10
213.487245
 20
258.308652
 30
0.0
 10
212.648018
 20
255.309352
 30
0.0
 10
215.658757
 20
252.444252
 30
0.0
  0
LWPOLYLINE
  5
123
100
AcDbEntity
  8
Layer_1
 62
7
100
AcDbPolyline
 90
4
 70
1
 10
231.836512
 20
255.307292
 30
0.0
 10
230.991082
 20
258.306592
 30
0.0
 10
226.935522
 20
253.186492
 30
0.0
 10
228.826872
 20
252.442352
 30
0.0
  0
LWPOLYLINE
  5
124
100
AcDbEntity
  8
Layer_1
 62
7
100
AcDbPolyline
 90
4
 70
1
 10
222.243302
 20
263.530042
 30
0.0
 10
226.144872
 20
268.439302
 30
0.0
 10
222.245362
 20
271.752802
 30
0.0
 10
218.339662
 20
268.438272
 30
0.0
  0
LWPOLYLINE
  5
125
100
AcDbEntity
  8
Layer_1
 62
7
100
AcDbPolyline
 90
6
 70
1
 10
225.684952
 20
282.106682
 30
0.0
 10
226.102492
 20
286.146752
 30
0.0
 10
222.241232
 20
294.885232
 30
0.0
 10
218.379972
 20
286.146752
 30
0.0
 10
218.807112
 20
282.014502
 30
0.0
 10
222.347682
 20
284.903412
 30
0.0
  0
LWPOLYLINE
  5
126
100
AcDbEntity
  8
Layer_1
 62
7
100
AcDbPolyline
 90
4
 70
1
 10
208.236599
 20
285.582332
 30
0.0
 10
206.674224
 20
300.631652
 30
0.0
 10
203.721622
 20
298.323362
 30
0.0
 10
204.030026
 20
289.097562
 30
0.0
  0
LWPOLYLINE
  5
127
100
AcDbEntity
  8
Layer_1
 62
7
100
AcDbPolyline
 90
5
 70
1
 10
192.146945
 20
290.620892
 30
0.0
 10
186.209830
 20
298.099742
 30
0.0
 10
177.158713
 20
302.376252
 30
0.0
 10
179.406639
 20
295.792672
 30
0.0
 10
185.800046
 20
291.525232
 30
0.0
  0
LWPOLYLINE
  5
128
100
AcDbEntity
  8
Layer_1
 62
7
100
AcDbPolyline
 90
4
 70
1
 10
236.241412
 20
285.569012
 30
0.0
 10
240.458212
 20
289.095412
 30
0.0
 10
240.762062
 20
298.322752
 30
0.0
 10
237.810312
 20
300.629592
 30
0.0
  0
LWPOLYLINE
  5
129
100
AcDbEntity
  8
Layer_1
 62
7
100
AcDbPolyline
 90
5
 70
1
 10
252.323112
 20
290.629162
 30
0.0
 10
258.697922
 20
291.528252
 30
0.0
 10
265.094012
 20
295.802052
 30
0.0
 10
267.323752
 20
302.376252
 30
0.0
 10
258.275202
 20
298.099512
 30
0.0
  0
LWPOLYLINE
  5
12a
100
AcDbEntity
  8
Layer_1
 62
7
100
AcDbPolyline
 90
3
 70
1
 10
241.626082
 20
310.523592
 30
0.0
 10
241.982712
 20
310.242962
 30
0.0
 10
242.058712
 20
310.886082
 30
0.0
  0
LWPOLYLINE
  5
12b
100
AcDbEntity
  8
Layer_1
 62
7
100
AcDbPolyline
 90
3
 70
1
 10
253.412662
 20
320.298982
 30
0.0
 10
253.219732
 20
318.784732
 30
0.0
 10
255.798042
 20
319.930642
 30
0.0
  0
LWPOLYLINE
  5
12c
100
AcDbEntity
  8
Layer_1
 62
7
100
AcDbPolyline
 90
3
 70
1
 10
268.245292
 20
328.145012
 30
0.0
 10
268.751012
 20
328.069012
 30
0.0
 10
268.862092
 20
328.437342
 30
0.0
  0
LWPOLYLINE
  5
12d
100
AcDbEntity
  8
Layer_1
 62
7
100
AcDbPolyline
 90
3
 70
1
 10
289.005112
 20
347.737822
 30
0.0
 10
289.459862
 20
347.816322
 30
0.0
 10
289.815402
 20
348.907732
 30
0.0
  0
LWPOLYLINE
  5
12e
100
AcDbEntity
  8
Layer_1
 62
7
100
AcDbPolyline
 90
3
 70
1
 10
202.501163
 20
310.248802
 30
0.0
 10
202.863647
 20
310.511902
 30
0.0
 10
202.419311
 20
310.909462
 30
0.0
  0
LWPOLYLINE
  5
12f
100
AcDbEntity
  8
Layer_1
 62
7
100
AcDbPolyline
 90
3
 70
1
 10
191.253977
 20
318.765952
 30
0.0
 10
191.080344
 20
320.287302
 30
0.0
 10
188.707362
 20
319.931772
 30
0.0
  0
LWPOLYLINE
  5
130
100
AcDbEntity
  8
Layer_1
 62
7
100
AcDbPolyline
 90
3
 70
1
 10
175.622888
 20
328.435642
 30
0.0
 10
175.738644
 20
328.067702
 30
0.0
 10
176.226469
 20
328.142102
 30
0.0
  0
LWPOLYLINE
  5
131
100
AcDbEntity
  8
Layer_1
 62
7
100
AcDbPolyline
 90
3
 70
1
 10
154.673699
 20
348.906002
 30
0.0
 10
155.021565
 20
347.821472
 30
0.0
 10
155.477596
 20
347.733772
 30
0.0
  0
LWPOLYLINE
  5
132
100
AcDbEntity
  8
Layer_1
 62
7
100
AcDbPolyline
 90
124
 70
1
 10
-415.015235
 20
-115.931261
 30
0.0
 10
-437.536852
 20
-96.428591
 30
0.0
 10
-450.668872
 20
-59.135771
 30
0.0
 10
-446.216422
 20
-36.571781
 30
0.0
 10
-439.530532
 20
-23.839741
 30
0.0
 10
-440.653542
 20
-12.838991
 30
0.0
 10
-440.354252
 20
-5.655831
 30
0.0
 10
-445.522932
 20
-1.386331
 30
0.0
 10
-453.757052
 20
-0.220511
 30
0.0
 10
-463.100152
 20
6.039569
 30
0.0
 10
-469.980352
 20
26.413529
 30
0.0
 10
-468.264692
 20
29.424199
 30
0.0
 10
-443.877552
 20
23.995069
 30
0.0
 10
-444.414982
 20
25.466809
 30
0.0
 10
-471.887212
 20
37.755469
 30
0.0
 10
-487.430092
 20
56.709759
 30
0.0
 10
-494.621312
 20
68.069549
 30
0.0
 10
-506.155922
 20
81.098562
 30
0.0
 10
-509.245132
 20
94.126194
 30
0.0
 10
-509.053932
 20
104.979274
 30
0.0
 10
-500.953092
 20
114.793494
 30
0.0
 10
-498.904682
 20
113.605104
 30
0.0
 10
-503.001592
 20
102.797494
 30
0.0
 10
-499.814182
 20
87.292492
 30
0.0
 10
-494.559732
 20
82.193062
 30
0.0
 10
-495.765772
 20
93.170134
 30
0.0
 10
-496.536872
 20
111.324104
 30
0.0
 10
-502.756642
 20
124.699004
 30
0.0
 10
-497.634472
 20
145.835694
 30
0.0
 10
-494.020222
 20
150.948564
 30
0.0
 10
-474.933022
 20
159.777994
 30
0.0
 10
-473.597702
 20
157.822554
 30
0.0
 10
-489.577232
 20
142.504534
 30
0.0
 10
-492.945352
 20
124.931544
 30
0.0
 10
-489.243252
 20
112.946744
 30
0.0
 10
-487.710532
 20
113.070774
 30
0.0
 10
-478.733302
 20
119.796974
 30
0.0
 10
-475.630352
 20
128.665824
 30
0.0
 10
-473.306242
 20
128.375264
 30
0.0
 10
-472.132152
 20
115.257714
 30
0.0
 10
-484.048742
 20
101.469414
 30
0.0
 10
-480.962622
 20
71.743062
 30
0.0
 10
-472.169362
 20
59.099899
 30
0.0
 10
-472.735732
 20
66.188869
 30
0.0
 10
-472.076342
 20
78.352472
 30
0.0
 10
-467.942232
 20
86.420202
 30
0.0
 10
-453.533812
 20
95.800504
 30
0.0
 10
-451.898762
 20
94.110684
 30
0.0
 10
-463.059842
 20
78.111662
 30
0.0
 10
-463.030942
 20
60.751479
 30
0.0
 10
-458.081372
 20
47.902649
 30
0.0
 10
-443.033202
 20
40.817809
 30
0.0
 10
-442.562942
 20
40.339289
 30
0.0
 10
-442.222912
 20
55.365759
 30
0.0
 10
-439.646322
 20
61.942109
 30
0.0
 10
-425.705492
 20
79.733362
 30
0.0
 10
-423.680372
 20
78.476492
 30
0.0
 10
-434.169652
 20
56.473709
 30
0.0
 10
-434.522092
 20
42.633719
 30
0.0
 10
-431.128132
 20
30.230869
 30
0.0
 10
-425.549092
 20
25.299329
 30
0.0
 10
-421.506862
 20
22.859219
 30
0.0
 10
-415.172985
 20
22.764819
 30
0.0
 10
-408.526775
 20
22.858119
 30
0.0
 10
-404.483615
 20
25.301379
 30
0.0
 10
-398.909795
 20
30.222009
 30
0.0
 10
-395.511555
 20
42.625389
 30
0.0
 10
-395.861925
 20
56.473639
 30
0.0
 10
-406.353265
 20
78.479522
 30
0.0
 10
-404.327555
 20
79.733192
 30
0.0
 10
-390.386285
 20
61.943069
 30
0.0
 10
-387.810735
 20
55.366729
 30
0.0
 10
-387.470705
 20
40.341289
 30
0.0
 10
-386.995275
 20
40.820849
 30
0.0
 10
-371.950205
 20
47.904649
 30
0.0
 10
-367.001665
 20
60.751409
 30
0.0
 10
-366.972765
 20
78.113652
 30
0.0
 10
-378.134875
 20
94.110614
 30
0.0
 10
-376.496735
 20
95.799404
 30
0.0
 10
-362.088315
 20
86.417022
 30
0.0
 10
-357.956265
 20
78.350332
 30
0.0
 10
-357.296875
 20
66.198109
 30
0.0
 10
-357.866345
 20
59.102929
 30
0.0
 10
-349.067915
 20
71.747122
 30
0.0
 10
-345.983865
 20
101.469344
 30
0.0
 10
-357.906655
 20
115.263844
 30
0.0
 10
-356.726365
 20
128.377254
 30
0.0
 10
-354.401365
 20
128.662824
 30
0.0
 10
-351.300335
 20
119.801034
 30
0.0
 10
-342.320995
 20
113.070154
 30
0.0
 10
-340.790385
 20
112.948744
 30
0.0
 10
-337.087255
 20
124.930444
 30
0.0
 10
-340.459655
 20
142.508694
 30
0.0
 10
-356.432845
 20
157.823524
 30
0.0
 10
-355.102695
 20
159.775854
 30
0.0
 10
-336.010315
 20
150.946424
 30
0.0
 10
-332.399165
 20
145.834594
 30
0.0
 10
-327.274965
 20
124.703274
 30
0.0
 10
-333.495745
 20
111.321964
 30
0.0
 10
-334.292595
 20
93.030574
 30
0.0
 10
-335.472885
 20
82.197132
 30
0.0
 10
-330.226695
 20
87.313102
 30
0.0
 10
-327.031025
 20
102.798454
 30
0.0
 10
-331.128965
 20
113.605034
 30
0.0
 10
-329.082575
 20
114.793594
 30
0.0
 10
-320.978675
 20
104.977134
 30
0.0
 10
-320.790575
 20
94.127154
 30
0.0
 10
-323.878755
 20
81.095392
 30
0.0
 10
-335.435245
 20
68.046099
 30
0.0
 10
-342.623545
 20
56.674619
 30
0.0
 10
-358.147525
 20
37.753809
 30
0.0
 10
-385.621755
 20
25.462609
 30
0.0
 10
-386.156745
 20
23.994029
 30
0.0
 10
-361.769445
 20
29.421059
 30
0.0
 10
-360.053295
 20
26.416559
 30
0.0
 10
-366.937765
 20
6.036439
 30
0.0
 10
-376.278655
 20
-0.220581
 30
0.0
 10
-384.510715
 20
-1.387431
 30
0.0
 10
-389.678355
 20
-5.659011
 30
0.0
 10
-389.377605
 20
-12.849261
 30
0.0
 10
-390.503115
 20
-23.838771
 30
0.0
 10
-383.817215
 20
-36.575981
 30
0.0
 10
-379.364775
 20
-59.136881
 30
0.0
 10
-392.498855
 20
-96.430721
 30
0.0
  0
LWPOLYLINE
  5
133
100
AcDbEntity
  8
Layer_1
 62
7
100
AcDbPolyline
 90
4
 70
1
 10
-408.106565
 20
-103.335371
 30
0.0
 10
-397.594515
 20
-94.244051
 30
0.0
 10
-397.935165
 20
-89.501641
 30
0.0
 10
-402.951905
 20
-84.542771
 30
0.0
  0
LWPOLYLINE
  5
134
100
AcDbEntity
  8
Layer_1
 62
7
100
AcDbPolyline
 90
4
 70
1
 10
-421.953334
 20
-103.331291
 30
0.0
 10
-427.096061
 20
-84.532961
 30
0.0
 10
-432.018830
 20
-89.391421
 30
0.0
 10
-432.363775
 20
-94.337581
 30
0.0
  0
LWPOLYLINE
  5
135
100
AcDbEntity
  8
Layer_1
 62
7
100
AcDbPolyline
 90
4
 70
1
 10
-415.024555
 20
-100.073611
 30
0.0
 10
-409.114845
 20
-78.451151
 30
0.0
 10
-415.025595
 20
-72.596211
 30
0.0
 10
-420.932205
 20
-78.447021
 30
0.0
  0
LWPOLYLINE
  5
136
100
AcDbEntity
  8
Layer_1
 62
7
100
AcDbPolyline
 90
4
 70
1
 10
-398.734585
 20
-78.078401
 30
0.0
 10
-400.517775
 20
-52.827281
 30
0.0
 10
-405.785495
 20
-64.514471
 30
0.0
 10
-411.847495
 20
-65.090731
 30
0.0
  0
LWPOLYLINE
  5
137
100
AcDbEntity
  8
Layer_1
 62
7
100
AcDbPolyline
 90
3
 70
1
 10
-391.054965
 20
-77.323571
 30
0.0
 10
-384.662015
 20
-59.182451
 30
0.0
 10
-393.697695
 20
-39.989421
 30
0.0
  0
LWPOLYLINE
  5
138
100
AcDbEntity
  8
Layer_1
 62
7
100
AcDbPolyline
 90
8
 70
1
 10
-410.312705
 20
-56.025651
 30
0.0
 10
-410.270305
 20
-56.100051
 30
0.0
 10
-410.901175
 20
-57.481101
 30
0.0
 10
-415.024435
 20
-57.856741
 30
0.0
 10
-419.161755
 20
-57.473611
 30
0.0
 10
-419.779805
 20
-56.100051
 30
0.0
 10
-419.738505
 20
-56.024551
 30
0.0
 10
-415.026645
 20
-56.125841
 30
0.0
  0
LWPOLYLINE
  5
139
100
AcDbEntity
  8
Layer_1
 62
7
100
AcDbPolyline
 90
4
 70
1
 10
-418.310205
 20
-65.078661
 30
0.0
 10
-431.232353
 20
-77.881681
 30
0.0
 10
-429.512562
 20
-52.867181
 30
0.0
 10
-424.282421
 20
-64.526171
 30
0.0
  0
LWPOLYLINE
  5
13a
100
AcDbEntity
  8
Layer_1
 62
7
100
AcDbPolyline
 90
3
 70
1
 10
-438.994154
 20
-77.323571
 30
0.0
 10
-436.354522
 20
-39.992521
 30
0.0
 10
-445.389823
 20
-59.205831
 30
0.0
  0
LWPOLYLINE
  5
13b
100
AcDbEntity
  8
Layer_1
 62
7
100
AcDbPolyline
 90
4
 70
1
 10
-408.149525
 20
-34.816611
 30
0.0
 10
-403.967225
 20
-30.829741
 30
0.0
 10
-405.707295
 20
-24.651851
 30
0.0
 10
-412.432465
 20
-33.139191
 30
0.0
  0
LWPOLYLINE
  5
13c
100
AcDbEntity
  8
Layer_1
 62
7
100
AcDbPolyline
 90
4
 70
1
 10
-417.618855
 20
-33.136201
 30
0.0
 10
-421.898504
 20
-34.814151
 30
0.0
 10
-426.087536
 20
-30.832671
 30
0.0
 10
-424.343886
 20
-24.650821
 30
0.0
  0
LWPOLYLINE
  5
13d
100
AcDbEntity
  8
Layer_1
 62
7
100
AcDbPolyline
 90
4
 70
1
 10
-415.025915
 20
-24.280181
 30
0.0
 10
-409.341185
 20
-17.121561
 30
0.0
 10
-415.025915
 20
-12.294811
 30
0.0
 10
-420.713095
 20
-17.122601
 30
0.0
  0
LWPOLYLINE
  5
13e
100
AcDbEntity
  8
Layer_1
 62
7
100
AcDbPolyline
 90
6
 70
1
 10
-410.553515
 20
-6.204401
 30
0.0
 10
-409.854675
 20
0.568999
 30
0.0
 10
-415.024555
 20
12.275089
 30
0.0
 10
-420.199435
 20
0.568309
 30
0.0
 10
-419.493535
 20
-6.254011
 30
0.0
 10
-414.911915
 20
-2.481431
 30
0.0
  0
LWPOLYLINE
  5
13f
100
AcDbEntity
  8
Layer_1
 62
7
100
AcDbPolyline
 90
4
 70
1
 10
-402.686835
 20
-3.231241
 30
0.0
 10
-395.565285
 20
2.704619
 30
0.0
 10
-395.214985
 20
13.197479
 30
0.0
 10
-400.505545
 20
17.328009
 30
0.0
  0
LWPOLYLINE
  5
140
100
AcDbEntity
  8
Layer_1
 62
7
100
AcDbPolyline
 90
3
 70
1
 10
-408.269415
 20
15.735349
 30
0.0
 10
-408.039975
 20
17.916089
 30
0.0
 10
-409.230595
 20
17.899589
 30
0.0
  0
LWPOLYLINE
  5
141
100
AcDbEntity
  8
Layer_1
 62
7
100
AcDbPolyline
 90
3
 70
1
 10
-421.793266
 20
15.699789
 30
0.0
 10
-420.822745
 20
17.909779
 30
0.0
 10
-422.003740
 20
17.898079
 30
0.0
  0
LWPOLYLINE
  5
142
100
AcDbEntity
  8
Layer_1
 62
7
100
AcDbPolyline
 90
4
 70
1
 10
-427.405925
 20
-3.219551
 30
0.0
 10
-429.548674
 20
17.333889
 30
0.0
 10
-434.831102
 20
13.205269
 30
0.0
 10
-434.480217
 20
2.705899
 30
0.0
  0
LWPOLYLINE
  5
143
100
AcDbEntity
  8
Layer_1
 62
7
100
AcDbPolyline
 90
6
 70
1
 10
-387.322175
 20
4.053519
 30
0.0
 10
-384.960185
 20
3.562419
 30
0.0
 10
-378.037905
 20
4.568009
 30
0.0
 10
-371.092235
 20
9.245229
 30
0.0
 10
-367.730485
 20
19.114159
 30
0.0
 10
-379.821095
 20
13.396259
 30
0.0
  0
LWPOLYLINE
  5
144
100
AcDbEntity
  8
Layer_1
 62
7
100
AcDbPolyline
 90
6
 70
1
 10
-442.793967
 20
4.030139
 30
0.0
 10
-445.085804
 20
3.562419
 30
0.0
 10
-451.929800
 20
4.544299
 30
0.0
 10
-458.957794
 20
9.236519
 30
0.0
 10
-462.318828
 20
19.108779
 30
0.0
 10
-450.230677
 20
13.395439
 30
0.0
  0
LWPOLYLINE
  5
145
100
AcDbEntity
  8
Layer_1
 62
7
100
AcDbPolyline
 90
4
 70
1
 10
-435.753008
 20
22.085349
 30
0.0
 10
-432.393009
 20
24.691739
 30
0.0
 10
-435.420212
 20
27.349109
 30
0.0
 10
-437.162742
 20
33.487229
 30
0.0
  0
LWPOLYLINE
  5
146
100
AcDbEntity
  8
Layer_1
 62
7
100
AcDbPolyline
 90
4
 70
1
 10
-394.296105
 20
22.072949
 30
0.0
 10
-392.886605
 20
33.487829
 30
0.0
 10
-394.631795
 20
27.344599
 30
0.0
 10
-397.659215
 20
24.687769
 30
0.0
  0
LWPOLYLINE
  5
147
100
AcDbEntity
  8
Layer_1
 62
7
100
AcDbPolyline
 90
3
 70
1
 10
-385.639275
 20
30.907549
 30
0.0
 10
-376.941095
 20
34.810149
 30
0.0
 10
-384.977815
 20
36.033849
 30
0.0
  0
LWPOLYLINE
  5
148
100
AcDbEntity
  8
Layer_1
 62
7
100
AcDbPolyline
 90
5
 70
1
 10
-373.418825
 20
41.755459
 30
0.0
 10
-367.647605
 20
40.862489
 30
0.0
 10
-363.720195
 20
53.610039
 30
0.0
 10
-364.243165
 20
54.079259
 30
0.0
 10
-368.114895
 20
44.227889
 30
0.0
  0
LWPOLYLINE
  5
149
100
AcDbEntity
  8
Layer_1
 62
7
100
AcDbPolyline
 90
3
 70
1
 10
-358.370205
 20
45.376729
 30
0.0
 10
-352.728315
 20
52.208389
 30
0.0
 10
-356.468955
 20
51.536779
 30
0.0
  0
LWPOLYLINE
  5
14a
100
AcDbEntity
  8
Layer_1
 62
7
100
AcDbPolyline
 90
4
 70
1
 10
-351.073755
 20
60.203509
 30
0.0
 10
-346.794095
 20
60.905089
 30
0.0
 10
-343.272865
 20
72.008913
 30
0.0
 10
-344.508965
 20
69.664869
 30
0.0
  0
LWPOLYLINE
  5
14b
100
AcDbEntity
  8
Layer_1
 62
7
100
AcDbPolyline
 90
3
 70
1
 10
-342.280675
 20
104.891660
 30
0.0
 10
-343.008285
 20
108.165879
 30
0.0
 10
-345.819485
 20
108.910019
 30
0.0
  0
LWPOLYLINE
  5
14c
100
AcDbEntity
  8
Layer_1
 62
7
100
AcDbPolyline
 90
3
 70
1
 10
-444.442917
 20
30.907549
 30
0.0
 10
-445.071302
 20
36.000779
 30
0.0
 10
-453.108021
 20
34.843219
 30
0.0
  0
LWPOLYLINE
  5
14d
100
AcDbEntity
  8
Layer_1
 62
7
100
AcDbPolyline
 90
5
 70
1
 10
-456.696996
 20
41.740189
 30
0.0
 10
-462.438279
 20
40.874909
 30
0.0
 10
-466.333055
 20
53.620369
 30
0.0
 10
-465.812156
 20
54.083389
 30
0.0
 10
-461.938489
 20
44.231799
 30
0.0
  0
LWPOLYLINE
  5
14e
100
AcDbEntity
  8
Layer_1
 62
7
100
AcDbPolyline
 90
3
 70
1
 10
-471.728073
 20
45.376949
 30
0.0
 10
-473.580156
 20
51.528509
 30
0.0
 10
-477.416614
 20
52.223039
 30
0.0
  0
LWPOLYLINE
  5
14f
100
AcDbEntity
  8
Layer_1
 62
7
100
AcDbPolyline
 90
4
 70
1
 10
-478.960545
 20
60.168429
 30
0.0
 10
-483.216813
 20
60.928479
 30
0.0
 10
-486.801054
 20
72.008913
 30
0.0
 10
-485.536015
 20
69.644199
 30
0.0
  0
LWPOLYLINE
  5
150
100
AcDbEntity
  8
Layer_1
 62
7
100
AcDbPolyline
 90
3
 70
1
 10
-487.784974
 20
104.891660
 30
0.0
 10
-484.279244
 20
108.910019
 30
0.0
 10
-487.106979
 20
108.132806
 30
0.0
  0
LWPOLYLINE
  5
151
100
AcDbEntity
  8
Layer_1
 62
7
100
AcDbPolyline
 90
124
 70
1
 10
-197.300960
 20
-106.859829
 30
0.0
 10
-219.822577
 20
-87.357159
 30
0.0
 10
-232.954597
 20
-50.064339
 30
0.0
 10
-228.502147
 20
-27.500349
 30
0.0
 10
-221.816257
 20
-14.768309
 30
0.0
 10
-222.939267
 20
-3.767559
 30
0.0
 10
-222.639977
 20
3.415601
 30
0.0
 10
-227.808657
 20
7.685101
 30
0.0
 10
-236.042777
 20
8.850921
 30
0.0
 10
-245.385877
 20
15.111001
 30
0.0
 10
-252.266077
 20
35.484961
 30
0.0
 10
-250.550417
 20
38.495631
 30
0.0
 10
-226.163277
 20
33.066501
 30
0.0
 10
-226.700707
 20
34.538241
 30
0.0
 10
-254.172937
 20
46.826901
 30
0.0
 10
-269.715817
 20
65.781191
 30
0.0
 10
-276.907037
 20
77.140981
 30
0.0
 10
-288.441647
 20
90.169994
 30
0.0
 10
-291.530857
 20
103.197626
 30
0.0
 10
-291.339657
 20
114.050706
 30
0.0
 10
-283.238817
 20
123.864926
 30
0.0
 10
-281.190407
 20
122.676536
 30
0.0
 10
-285.287317
 20
111.868926
 30
0.0
 10
-282.099907
 20
96.363924
 30
0.0
 10
-276.845457
 20
91.264494
 30
0.0
 10
-278.051497
 20
102.241566
 30
0.0
 10
-278.822597
 20
120.395536
 30
0.0
 10
-285.042367
 20
133.770436
 30
0.0
 10
-279.920197
 20
154.907126
 30
0.0
 10
-276.305947
 20
160.019996
 30
0.0
 10
-257.218747
 20
168.849426
 30
0.0
 10
-255.883427
 20
166.893986
 30
0.0
 10
-271.862957
 20
151.575966
 30
0.0
 10
-275.231077
 20
134.002976
 30
0.0
 10
-271.528977
 20
122.018176
 30
0.0
 10
-269.996257
 20
122.142206
 30
0.0
 10
-261.019027
 20
128.868406
 30
0.0
 10
-257.916077
 20
137.737256
 30
0.0
 10
-255.591967
 20
137.446696
 30
0.0
 10
-254.417877
 20
124.329146
 30
0.0
 10
-266.334467
 20
110.540846
 30
0.0
 10
-263.248347
 20
80.814494
 30
0.0
 10
-254.455087
 20
68.171331
 30
0.0
 10
-255.021457
 20
75.260301
 30
0.0
 10
-254.362067
 20
87.423904
 30
0.0
 10
-250.227957
 20
95.491634
 30
0.0
 10
-235.819537
 20
104.871936
 30
0.0
 10
-234.184487
 20
103.182116
 30
0.0
 10
-245.345567
 20
87.183094
 30
0.0
 10
-245.316667
 20
69.822911
 30
0.0
 10
-240.367097
 20
56.974081
 30
0.0
 10
-225.318927
 20
49.889241
 30
0.0
 10
-224.848667
 20
49.410721
 30
0.0
 10
-224.508637
 20
64.437191
 30
0.0
 10
-221.932047
 20
71.013541
 30
0.0
 10
-207.991217
 20
88.804794
 30
0.0
 10
-205.966097
 20
87.547924
 30
0.0
 10
-216.455377
 20
65.545141
 30
0.0
 10
-216.807817
 20
51.705151
 30
0.0
 10
-213.413857
 20
39.302301
 30
0.0
 10
-207.834817
 20
34.370761
 30
0.0
 10
-203.792587
 20
31.930651
 30
0.0
 10
-197.458710
 20
31.836251
 30
0.0
 10
-190.812500
 20
31.929551
 30
0.0
 10
-186.769340
 20
34.372811
 30
0.0
 10
-181.195520
 20
39.293441
 30
0.0
 10
-177.797280
 20
51.696821
 30
0.0
 10
-178.147650
 20
65.545071
 30
0.0
 10
-188.638990
 20
87.550954
 30
0.0
 10
-186.613280
 20
88.804624
 30
0.0
 10
-172.672010
 20
71.014501
 30
0.0
 10
-170.096460
 20
64.438161
 30
0.0
 10
-169.756430
 20
49.412721
 30
0.0
 10
-169.281000
 20
49.892281
 30
0.0
 10
-154.235930
 20
56.976081
 30
0.0
 10
-149.287390
 20
69.822841
 30
0.0
 10
-149.258490
 20
87.185084
 30
0.0
 10
-160.420600
 20
103.182046
 30
0.0
 10
-158.782460
 20
104.870836
 30
0.0
 10
-144.374040
 20
95.488454
 30
0.0
 10
-140.241990
 20
87.421764
 30
0.0
 10
-139.582600
 20
75.269541
 30
0.0
 10
-140.152070
 20
68.174361
 30
0.0
 10
-131.353640
 20
80.818554
 30
0.0
 10
-128.269590
 20
110.540776
 30
0.0
 10
-140.192380
 20
124.335276
 30
0.0
 10
-139.012090
 20
137.448686
 30
0.0
 10
-136.687090
 20
137.734256
 30
0.0
 10
-133.586060
 20
128.872466
 30
0.0
 10
-124.606720
 20
122.141586
 30
0.0
 10
-123.076110
 20
122.020176
 30
0.0
 10
-119.372980
 20
134.001876
 30
0.0
 10
-122.745380
 20
151.580126
 30
0.0
 10
-138.718570
 20
166.894956
 30
0.0
 10
-137.388420
 20
168.847286
 30
0.0
 10
-118.296040
 20
160.017856
 30
0.0
 10
-114.684890
 20
154.906026
 30
0.0
 10
-109.560690
 20
133.774706
 30
0.0
 10
-115.781470
 20
120.393396
 30
0.0
 10
-116.578320
 20
102.102006
 30
0.0
 10
-117.758610
 20
91.268564
 30
0.0
 10
-112.512420
 20
96.384534
 30
0.0
 10
-109.316750
 20
111.869886
 30
0.0
 10
-113.414690
 20
122.676466
 30
0.0
 10
-111.368300
 20
123.865026
 30
0.0
 10
-103.264400
 20
114.048566
 30
0.0
 10
-103.076300
 20
103.198586
 30
0.0
 10
-106.164480
 20
90.166824
 30
0.0
 10
-117.720970
 20
77.117531
 30
0.0
 10
-124.909270
 20
65.746051
 30
0.0
 10
-140.433250
 20
46.825241
 30
0.0
 10
-167.907480
 20
34.534041
 30
0.0
 10
-168.442470
 20
33.065461
 30
0.0
 10
-144.055170
 20
38.492491
 30
0.0
 10
-142.339020
 20
35.487991
 30
0.0
 10
-149.223490
 20
15.107871
 30
0.0
 10
-158.564380
 20
8.850851
 30
0.0
 10
-166.796440
 20
7.684001
 30
0.0
 10
-171.964080
 20
3.412421
 30
0.0
 10
-171.663330
 20
-3.777829
 30
0.0
 10
-172.788840
 20
-14.767339
 30
0.0
 10
-166.102940
 20
-27.504549
 30
0.0
 10
-161.650500
 20
-50.065449
 30
0.0
 10
-174.784580
 20
-87.359289
 30
0.0
  0
LWPOLYLINE
  5
152
100
AcDbEntity
  8
Layer_1
 62
7
100
AcDbPolyline
 90
4
 70
1
 10
-192.748430
 20
-98.005729
 30
0.0
 10
-178.377680
 20
-85.578939
 30
0.0
 10
-178.773950
 20
-80.042639
 30
0.0
 10
-185.890460
 20
-73.005989
 30
0.0
  0
LWPOLYLINE
  5
153
100
AcDbEntity
  8
Layer_1
 62
7
100
AcDbPolyline
 90
4
 70
1
 10
-201.734540
 20
-98.046629
 30
0.0
 10
-208.734909
 20
-72.826539
 30
0.0
 10
-215.847652
 20
-80.083979
 30
0.0
 10
-216.203186
 20
-85.574069
 30
0.0
  0
LWPOLYLINE
  5
154
100
AcDbEntity
  8
Layer_1
 62
7
100
AcDbPolyline
 90
4
 70
1
 10
-197.235870
 20
-95.628229
 30
0.0
 10
-189.953800
 20
-68.987969
 30
0.0
 10
-197.529390
 20
-61.485629
 30
0.0
 10
-204.703114
 20
-68.775109
 30
0.0
  0
LWPOLYLINE
  5
155
100
AcDbEntity
  8
Layer_1
 62
7
100
AcDbPolyline
 90
4
 70
1
 10
-174.184050
 20
-74.552529
 30
0.0
 10
-165.564420
 20
-50.072369
 30
0.0
 10
-176.536360
 20
-26.724959
 30
0.0
 10
-177.445170
 20
-28.736139
 30
0.0
  0
LWPOLYLINE
  5
156
100
AcDbEntity
  8
Layer_1
 62
7
100
AcDbPolyline
 90
4
 70
1
 10
-220.403447
 20
-74.511189
 30
0.0
 10
-229.010673
 20
-50.095109
 30
0.0
 10
-218.028790
 20
-26.724929
 30
0.0
 10
-217.140118
 20
-28.736139
 30
0.0
  0
LWPOLYLINE
  5
157
100
AcDbEntity
  8
Layer_1
 62
7
100
AcDbPolyline
 90
4
 70
1
 10
-179.302080
 20
-72.468939
 30
0.0
 10
-181.745280
 20
-38.254269
 30
0.0
 10
-188.948200
 20
-54.297129
 30
0.0
 10
-196.955010
 20
-55.048399
 30
0.0
  0
LWPOLYLINE
  5
158
100
AcDbEntity
  8
Layer_1
 62
7
100
AcDbPolyline
 90
4
 70
1
 10
-215.280925
 20
-72.327799
 30
0.0
 10
-212.842925
 20
-38.248429
 30
0.0
 10
-205.631241
 20
-54.297129
 30
0.0
 10
-198.112620
 20
-55.004549
 30
0.0
  0
LWPOLYLINE
  5
159
100
AcDbEntity
  8
Layer_1
 62
7
100
AcDbPolyline
 90
8
 70
1
 10
-189.907020
 20
-44.299579
 30
0.0
 10
-192.315790
 20
-49.631599
 30
0.0
 10
-197.285330
 20
-50.087629
 30
0.0
 10
-202.278260
 20
-49.619909
 30
0.0
 10
-204.687030
 20
-44.241109
 30
0.0
 10
-202.044400
 20
-45.807979
 30
0.0
 10
-197.238560
 20
-45.913209
 30
0.0
 10
-192.561350
 20
-45.819709
 30
0.0
  0
LWPOLYLINE
  5
15a
100
AcDbEntity
  8
Layer_1
 62
7
100
AcDbPolyline
 90
3
 70
1
 10
-190.129190
 20
-38.663529
 30
0.0
 10
-188.632480
 20
-37.809939
 30
0.0
 10
-189.030050
 20
-37.003119
 30
0.0
  0
LWPOLYLINE
  5
15b
100
AcDbEntity
  8
Layer_1
 62
7
100
AcDbPolyline
 90
3
 70
1
 10
-205.967119
 20
-37.808519
 30
0.0
 10
-204.454033
 20
-38.676689
 30
0.0
 10
-205.570244
 20
-37.031309
 30
0.0
  0
LWPOLYLINE
  5
15c
100
AcDbEntity
  8
Layer_1
 62
7
100
AcDbPolyline
 90
3
 70
1
 10
-208.472392
 20
-31.698299
 30
0.0
 10
-207.976298
 20
-30.681309
 30
0.0
 10
-208.811389
 20
-29.945439
 30
0.0
  0
LWPOLYLINE
  5
15d
100
AcDbEntity
  8
Layer_1
 62
7
100
AcDbPolyline
 90
3
 70
1
 10
-186.586390
 20
-30.697839
 30
0.0
 10
-186.098560
 20
-31.723109
 30
0.0
 10
-185.767840
 20
-29.937169
 30
0.0
  0
LWPOLYLINE
  5
15e
100
AcDbEntity
  8
Layer_1
 62
7
100
AcDbPolyline
 90
4
 70
1
 10
-169.218980
 20
-30.561419
 30
0.0
 10
-169.544540
 20
-28.855059
 30
0.0
 10
-173.824380
 20
-20.656079
 30
0.0
 10
-173.859480
 20
-20.726379
 30
0.0
  0
LWPOLYLINE
  5
15f
100
AcDbEntity
  8
Layer_1
 62
7
100
AcDbPolyline
 90
4
 70
1
 10
-225.383712
 20
-30.583639
 30
0.0
 10
-225.044614
 20
-28.841369
 30
0.0
 10
-220.753813
 20
-20.654009
 30
0.0
 10
-220.723843
 20
-20.716009
 30
0.0
  0
LWPOLYLINE
  5
160
100
AcDbEntity
  8
Layer_1
 62
7
100
AcDbPolyline
 90
4
 70
1
 10
-204.420960
 20
-27.241729
 30
0.0
 10
-197.537660
 20
-24.587619
 30
0.0
 10
-207.141207
 20
-12.772319
 30
0.0
 10
-209.782908
 20
-22.152629
 30
0.0
  0
LWPOLYLINE
  5
161
100
AcDbEntity
  8
Layer_1
 62
7
100
AcDbPolyline
 90
4
 70
1
 10
-190.140880
 20
-27.262819
 30
0.0
 10
-196.819070
 20
-24.640649
 30
0.0
 10
-187.433950
 20
-12.786829
 30
0.0
 10
-184.796320
 20
-22.158829
 30
0.0
  0
LWPOLYLINE
  5
162
100
AcDbEntity
  8
Layer_1
 62
7
100
AcDbPolyline
 90
3
 70
1
 10
-179.765100
 20
-21.702009
 30
0.0
 10
-177.681510
 20
-17.071799
 30
0.0
 10
-181.708130
 20
-14.810439
 30
0.0
  0
LWPOLYLINE
  5
163
100
AcDbEntity
  8
Layer_1
 62
7
100
AcDbPolyline
 90
3
 70
1
 10
-216.888719
 20
-17.104479
 30
0.0
 10
-214.805855
 20
-21.745419
 30
0.0
 10
-212.697457
 20
-14.713289
 30
0.0
  0
LWPOLYLINE
  5
164
100
AcDbEntity
  8
Layer_1
 62
7
100
AcDbPolyline
 90
6
 70
1
 10
-218.365329
 20
-12.305169
 30
0.0
 10
-210.572522
 20
-8.080099
 30
0.0
 10
-211.657727
 20
-6.106069
 30
0.0
 10
-215.813426
 20
-8.230279
 30
0.0
 10
-216.372686
 20
-8.561729
 30
0.0
 10
-219.225866
 20
-3.736409
 30
0.0
  0
LWPOLYLINE
  5
165
100
AcDbEntity
  8
Layer_1
 62
7
100
AcDbPolyline
 90
6
 70
1
 10
-176.209760
 20
-12.218349
 30
0.0
 10
-183.866110
 20
-7.820209
 30
0.0
 10
-182.925630
 20
-6.103999
 30
0.0
 10
-178.769200
 20
-8.230289
 30
0.0
 10
-178.208610
 20
-8.559659
 30
0.0
 10
-175.360200
 20
-3.737219
 30
0.0
  0
LWPOLYLINE
  5
166
100
AcDbEntity
  8
Layer_1
 62
7
100
AcDbPolyline
 90
8
 70
1
 10
-197.293750
 20
-17.245439
 30
0.0
 10
-188.983270
 20
-6.799989
 30
0.0
 10
-187.289190
 20
-3.877779
 30
0.0
 10
-191.133920
 20
-6.786129
 30
0.0
 10
-197.290650
 20
-1.545099
 30
0.0
 10
-203.454612
 20
-6.780959
 30
0.0
 10
-207.289001
 20
-3.878809
 30
0.0
 10
-205.590315
 20
-6.799989
 30
0.0
  0
LWPOLYLINE
  5
167
100
AcDbEntity
  8
Layer_1
 62
7
100
AcDbPolyline
 90
3
 70
1
 10
-177.259830
 20
4.126901
 30
0.0
 10
-175.756040
 20
4.487611
 30
0.0
 10
-175.859400
 20
5.318561
 30
0.0
  0
LWPOLYLINE
  5
168
100
AcDbEntity
  8
Layer_1
 62
7
100
AcDbPolyline
 90
3
 70
1
 10
-218.828350
 20
4.491741
 30
0.0
 10
-218.720863
 20
5.339231
 30
0.0
 10
-217.319397
 20
4.119671
 30
0.0
  0
LWPOLYLINE
  5
169
100
AcDbEntity
  8
Layer_1
 62
7
100
AcDbPolyline
 90
6
 70
1
 10
-191.806740
 20
0.323521
 30
0.0
 10
-190.821790
 20
9.871251
 30
0.0
 10
-197.290650
 20
24.508091
 30
0.0
 10
-203.761568
 20
9.870221
 30
0.0
 10
-202.776620
 20
0.322481
 30
0.0
 10
-197.295810
 20
4.981631
 30
0.0
  0
LWPOLYLINE
  5
16a
100
AcDbEntity
  8
Layer_1
 62
7
100
AcDbPolyline
 90
4
 70
1
 10
-186.532650
 20
2.838091
 30
0.0
 10
-176.576670
 20
11.167301
 30
0.0
 10
-176.188060
 20
22.874081
 30
0.0
 10
-183.822730
 20
28.833401
 30
0.0
  0
LWPOLYLINE
  5
16b
100
AcDbEntity
  8
Layer_1
 62
7
100
AcDbPolyline
 90
4
 70
1
 10
-207.958727
 20
2.761611
 30
0.0
 10
-210.734786
 20
28.854081
 30
0.0
 10
-218.395301
 20
22.870981
 30
0.0
 10
-218.006695
 20
11.173501
 30
0.0
  0
LWPOLYLINE
  5
16c
100
AcDbEntity
  8
Layer_1
 62
7
100
AcDbPolyline
 90
7
 70
1
 10
-227.184442
 20
11.335921
 30
0.0
 10
-222.979001
 20
12.186361
 30
0.0
 10
-222.994501
 20
12.615271
 30
0.0
 10
-231.666839
 20
23.510731
 30
0.0
 10
-246.760492
 20
30.646211
 30
0.0
 10
-242.268777
 20
17.469761
 30
0.0
 10
-234.695757
 20
12.414601
 30
0.0
  0
LWPOLYLINE
  5
16d
100
AcDbEntity
  8
Layer_1
 62
7
100
AcDbPolyline
 90
4
 70
1
 10
-223.302351
 20
20.950521
 30
0.0
 10
-230.698426
 20
30.324791
 30
0.0
 10
-226.016598
 20
29.278891
 30
0.0
 10
-223.377943
 20
23.441481
 30
0.0
  0
LWPOLYLINE
  5
16e
100
AcDbEntity
  8
Layer_1
 62
7
100
AcDbPolyline
 90
7
 70
1
 10
-171.604360
 20
12.188421
 30
0.0
 10
-167.393760
 20
11.336801
 30
0.0
 10
-159.886210
 20
12.414771
 30
0.0
 10
-152.313550
 20
17.470791
 30
0.0
 10
-147.820800
 20
30.649311
 30
0.0
 10
-162.913640
 20
23.520071
 30
0.0
 10
-171.590920
 20
12.612171
 30
0.0
  0
LWPOLYLINE
  5
16f
100
AcDbEntity
  8
Layer_1
 62
7
100
AcDbPolyline
 90
4
 70
1
 10
-171.281900
 20
20.949651
 30
0.0
 10
-163.884930
 20
30.322721
 30
0.0
 10
-168.566820
 20
29.277821
 30
0.0
 10
-171.207480
 20
23.438391
 30
0.0
  0
LWPOLYLINE
  5
170
100
AcDbEntity
  8
Layer_1
 62
7
100
AcDbPolyline
 90
4
 70
1
 10
-189.772560
 20
19.854301
 30
0.0
 10
-188.848800
 20
28.814091
 30
0.0
 10
-189.729350
 20
28.271161
 30
0.0
 10
-193.470720
 20
28.228761
 30
0.0
  0
LWPOLYLINE
  5
171
100
AcDbEntity
  8
Layer_1
 62
7
100
AcDbPolyline
 90
4
 70
1
 10
-204.812667
 20
19.853071
 30
0.0
 10
-201.114700
 20
28.228791
 30
0.0
 10
-204.858141
 20
28.270091
 30
0.0
 10
-205.737675
 20
28.815791
 30
0.0
  0
LWPOLYLINE
  5
172
100
AcDbEntity
  8
Layer_1
 62
7
100
AcDbPolyline
 90
5
 70
1
 10
-175.614450
 20
28.750721
 30
0.0
 10
-173.510190
 20
45.584841
 30
0.0
 10
-175.223780
 20
47.066921
 30
0.0
 10
-177.939890
 20
37.242191
 30
0.0
 10
-181.970650
 20
33.693061
 30
0.0
  0
LWPOLYLINE
  5
173
100
AcDbEntity
  8
Layer_1
 62
7
100
AcDbPolyline
 90
5
 70
1
 10
-218.987513
 20
28.725921
 30
0.0
 10
-221.070072
 20
45.578631
 30
0.0
 10
-219.360615
 20
47.066921
 30
0.0
 10
-216.642437
 20
37.242191
 30
0.0
 10
-212.611674
 20
33.693061
 30
0.0
  0
LWPOLYLINE
  5
174
100
AcDbEntity
  8
Layer_1
 62
7
100
AcDbPolyline
 90
4
 70
1
 10
-225.132313
 20
37.858661
 30
0.0
 10
-226.067183
 20
45.433941
 30
0.0
 10
-226.878504
 20
46.256631
 30
0.0
 10
-239.588839
 20
44.363201
 30
0.0
  0
LWPOLYLINE
  5
175
100
AcDbEntity
  8
Layer_1
 62
7
100
AcDbPolyline
 90
4
 70
1
 10
-169.454620
 20
37.870581
 30
0.0
 10
-168.512040
 20
45.448411
 30
0.0
 10
-167.704860
 20
46.257661
 30
0.0
 10
-154.988320
 20
44.362171
 30
0.0
  0
LWPOLYLINE
  5
176
100
AcDbEntity
  8
Layer_1
 62
7
100
AcDbPolyline
 90
5
 70
1
 10
-221.077309
 20
52.207691
 30
0.0
 10
-220.473728
 20
52.720321
 30
0.0
 10
-220.157466
 20
65.110261
 30
0.0
 10
-220.236016
 20
65.221881
 30
0.0
 10
-220.824092
 20
63.738771
 30
0.0
  0
LWPOLYLINE
  5
177
100
AcDbEntity
  8
Layer_1
 62
7
100
AcDbPolyline
 90
5
 70
1
 10
-173.506050
 20
52.199421
 30
0.0
 10
-173.756010
 20
63.735361
 30
0.0
 10
-174.346310
 20
65.219811
 30
0.0
 10
-174.423810
 20
65.104061
 30
0.0
 10
-174.107560
 20
52.732721
 30
0.0
  0
LWPOLYLINE
  5
178
100
AcDbEntity
  8
Layer_1
 62
7
100
AcDbPolyline
 90
5
 70
1
 10
-149.005220
 20
48.517991
 30
0.0
 10
-144.538310
 20
63.076281
 30
0.0
 10
-147.057020
 20
65.336601
 30
0.0
 10
-151.361670
 20
54.273711
 30
0.0
 10
-160.061910
 20
50.174741
 30
0.0
  0
LWPOLYLINE
  5
179
100
AcDbEntity
  8
Layer_1
 62
7
100
AcDbPolyline
 90
4
 70
1
 10
-143.476880
 20
49.525681
 30
0.0
 10
-142.698630
 20
49.872951
 30
0.0
 10
-131.823840
 20
63.139321
 30
0.0
 10
-139.752040
 20
61.694451
 30
0.0
  0
LWPOLYLINE
  5
17a
100
AcDbEntity
  8
Layer_1
 62
7
100
AcDbPolyline
 90
4
 70
1
 10
-145.163600
 20
70.327311
 30
0.0
 10
-143.766270
 20
69.081081
 30
0.0
 10
-143.269140
 20
75.331861
 30
0.0
 10
-143.276140
 20
75.439351
 30
0.0
  0
LWPOLYLINE
  5
17b
100
AcDbEntity
  8
Layer_1
 62
7
100
AcDbPolyline
 90
3
 70
1
 10
-145.556780
 20
84.598671
 30
0.0
 10
-145.558780
 20
83.670367
 30
0.0
 10
-145.239420
 20
84.540600
 30
0.0
  0
LWPOLYLINE
  5
17c
100
AcDbEntity
  8
Layer_1
 62
7
100
AcDbPolyline
 90
4
 70
1
 10
-145.509830
 20
89.646230
 30
0.0
 10
-146.609500
 20
89.836399
 30
0.0
 10
-150.044950
 20
94.818009
 30
0.0
 10
-147.211340
 20
92.975273
 30
0.0
  0
LWPOLYLINE
  5
17d
100
AcDbEntity
  8
Layer_1
 62
7
100
AcDbPolyline
 90
5
 70
1
 10
-136.175000
 20
67.421231
 30
0.0
 10
-128.127940
 20
68.864041
 30
0.0
 10
-121.704430
 20
88.761392
 30
0.0
 10
-121.418270
 20
91.474543
 30
0.0
 10
-128.099000
 20
79.055661
 30
0.0
  0
LWPOLYLINE
  5
17e
100
AcDbEntity
  8
Layer_1
 62
7
100
AcDbPolyline
 90
3
 70
1
 10
-126.384580
 20
92.748721
 30
0.0
 10
-125.039760
 20
95.216950
 30
0.0
 10
-125.843850
 20
98.034350
 30
0.0
  0
LWPOLYLINE
  5
17f
100
AcDbEntity
  8
Layer_1
 62
7
100
AcDbPolyline
 90
6
 70
1
 10
-121.662300
 20
101.509878
 30
0.0
 10
-120.900480
 20
102.939476
 30
0.0
 10
-124.241830
 20
118.429563
 30
0.0
 10
-125.618530
 20
118.583997
 30
0.0
 10
-131.725660
 20
120.223176
 30
0.0
 10
-124.642880
 20
112.039695
 30
0.0
  0
LWPOLYLINE
  5
180
100
AcDbEntity
  8
Layer_1
 62
7
100
AcDbPolyline
 90
4
 70
1
 10
-116.130740
 20
132.043642
 30
0.0
 10
-114.217680
 20
134.354611
 30
0.0
 10
-116.363290
 20
138.052579
 30
0.0
 10
-115.565400
 20
133.890558
 30
0.0
  0
LWPOLYLINE
  5
181
100
AcDbEntity
  8
Layer_1
 62
7
100
AcDbPolyline
 90
5
 70
1
 10
-117.079520
 20
149.281865
 30
0.0
 10
-118.034500
 20
153.295057
 30
0.0
 10
-120.728910
 20
157.093275
 30
0.0
 10
-125.463510
 20
159.298825
 30
0.0
 10
-119.564120
 20
153.615451
 30
0.0
  0
LWPOLYLINE
  5
182
100
AcDbEntity
  8
Layer_1
 62
7
100
AcDbPolyline
 90
4
 70
1
 10
-118.842560
 20
81.435701
 30
0.0
 10
-109.534760
 20
91.936530
 30
0.0
 10
-108.788560
 20
95.093959
 30
0.0
 10
-117.114920
 20
86.734112
 30
0.0
  0
LWPOLYLINE
  5
183
100
AcDbEntity
  8
Layer_1
 62
7
100
AcDbPolyline
 90
3
 70
1
 10
-107.234300
 20
103.842494
 30
0.0
 10
-106.772420
 20
104.318984
 30
0.0
 10
-106.796920
 20
105.919139
 30
0.0
  0
LWPOLYLINE
  5
184
100
AcDbEntity
  8
Layer_1
 62
7
100
AcDbPolyline
 90
5
 70
1
 10
-245.811455
 20
48.490561
 30
0.0
 10
-234.525582
 20
50.175771
 30
0.0
 10
-243.218591
 20
54.271641
 30
0.0
 10
-247.527373
 20
65.337641
 30
0.0
 10
-250.088455
 20
63.029771
 30
0.0
  0
LWPOLYLINE
  5
185
100
AcDbEntity
  8
Layer_1
 62
7
100
AcDbPolyline
 90
4
 70
1
 10
-251.108548
 20
49.524651
 30
0.0
 10
-254.833387
 20
61.696511
 30
0.0
 10
-262.755382
 20
63.138291
 30
0.0
 10
-251.885992
 20
49.879111
 30
0.0
  0
LWPOLYLINE
  5
186
100
AcDbEntity
  8
Layer_1
 62
7
100
AcDbPolyline
 90
4
 70
1
 10
-250.821925
 20
69.084931
 30
0.0
 10
-249.412530
 20
70.328551
 30
0.0
 10
-251.295617
 20
75.638811
 30
0.0
 10
-251.314217
 20
75.328761
 30
0.0
  0
LWPOLYLINE
  5
187
100
AcDbEntity
  8
Layer_1
 62
7
100
AcDbPolyline
 90
3
 70
1
 10
-249.023923
 20
83.674502
 30
0.0
 10
-249.030123
 20
84.692526
 30
0.0
 10
-249.375322
 20
84.631556
 30
0.0
  0
LWPOLYLINE
  5
188
100
AcDbEntity
  8
Layer_1
 62
7
100
AcDbPolyline
 90
4
 70
1
 10
-248.006825
 20
89.842998
 30
0.0
 10
-244.539839
 20
94.815466
 30
0.0
 10
-247.390946
 20
92.970058
 30
0.0
 10
-249.073532
 20
89.648297
 30
0.0
  0
LWPOLYLINE
  5
189
100
AcDbEntity
  8
Layer_1
 62
7
100
AcDbPolyline
 90
5
 70
1
 10
-258.321545
 20
67.284801
 30
0.0
 10
-266.484354
 20
79.058761
 30
0.0
 10
-273.166117
 20
91.478676
 30
0.0
 10
-272.866230
 20
88.692696
 30
0.0
 10
-266.624913
 20
68.638731
 30
0.0
  0
LWPOLYLINE
  5
18a
100
AcDbEntity
  8
Layer_1
 62
7
100
AcDbPolyline
 90
3
 70
1
 10
-268.202079
 20
92.738548
 30
0.0
 10
-268.741580
 20
98.032281
 30
0.0
 10
-269.541532
 20
95.222117
 30
0.0
  0
LWPOLYLINE
  5
18b
100
AcDbEntity
  8
Layer_1
 62
7
100
AcDbPolyline
 90
4
 70
1
 10
-275.752951
 20
81.431317
 30
0.0
 10
-277.466629
 20
86.739949
 30
0.0
 10
-285.798937
 20
95.097060
 30
0.0
 10
-285.048595
 20
91.938596
 30
0.0
  0
LWPOLYLINE
  5
18c
100
AcDbEntity
  8
Layer_1
 62
7
100
AcDbPolyline
 90
3
 70
1
 10
-287.815785
 20
104.324832
 30
0.0
 10
-287.345140
 20
103.824954
 30
0.0
 10
-287.780706
 20
105.915086
 30
0.0
  0
LWPOLYLINE
  5
18d
100
AcDbEntity
  8
Layer_1
 62
7
100
AcDbPolyline
 90
6
 70
1
 10
-272.881896
 20
101.403652
 30
0.0
 10
-269.849428
 20
112.053933
 30
0.0
 10
-262.829217
 20
120.233214
 30
0.0
 10
-268.965857
 20
118.585032
 30
0.0
 10
-270.342516
 20
118.430002
 30
0.0
 10
-273.681848
 20
102.938442
 30
0.0
  0
LWPOLYLINE
  5
18e
100
AcDbEntity
  8
Layer_1
 62
7
100
AcDbPolyline
 90
4
 70
1
 10
-278.455505
 20
132.046111
 30
0.0
 10
-279.015889
 20
133.902959
 30
0.0
 10
-278.200435
 20
138.081516
 30
0.0
 10
-280.362577
 20
134.354611
 30
0.0
  0
LWPOLYLINE
  5
18f
100
AcDbEntity
  8
Layer_1
 62
7
100
AcDbPolyline
 90
5
 70
1
 10
-277.563911
 20
149.033176
 30
0.0
 10
-275.015100
 20
153.613384
 30
0.0
 10
-269.117786
 20
159.296758
 30
0.0
 10
-273.853412
 20
157.095342
 30
0.0
 10
-276.546788
 20
153.291957
 30
0.0
  0
LWPOLYLINE
  5
190
100
AcDbEntity
  8
Layer_1
 62
7
100
AcDbPolyline
 90
124
 70
1
 10
15.121667
 20
-112.907455
 30
0.0
 10
-7.399950
 20
-93.404785
 30
0.0
 10
-20.531970
 20
-56.111965
 30
0.0
 10
-16.079520
 20
-33.547975
 30
0.0
 10
-9.393630
 20
-20.815935
 30
0.0
 10
-10.516640
 20
-9.815185
 30
0.0
 10
-10.217350
 20
-2.632025
 30
0.0
 10
-15.386030
 20
1.637475
 30
0.0
 10
-23.620150
 20
2.803295
 30
0.0
 10
-32.963250
 20
9.063375
 30
0.0
 10
-39.843450
 20
29.437335
 30
0.0
 10
-38.127790
 20
32.448005
 30
0.0
 10
-13.740650
 20
27.018875
 30
0.0
 10
-14.278080
 20
28.490615
 30
0.0
 10
-41.750310
 20
40.779275
 30
0.0
 10
-57.293190
 20
59.733565
 30
0.0
 10
-64.484410
 20
71.093355
 30
0.0
 10
-76.019020
 20
84.122368
 30
0.0
 10
-79.108230
 20
97.150000
 30
0.0
 10
-78.917030
 20
108.003080
 30
0.0
 10
-70.816190
 20
117.817300
 30
0.0
 10
-68.767780
 20
116.628910
 30
0.0
 10
-72.864690
 20
105.821300
 30
0.0
 10
-69.677280
 20
90.316298
 30
0.0
 10
-64.422830
 20
85.216868
 30
0.0
 10
-65.628870
 20
96.193940
 30
0.0
 10
-66.399970
 20
114.347910
 30
0.0
 10
-72.619740
 20
127.722810
 30
0.0
 10
-67.497570
 20
148.859500
 30
0.0
 10
-63.883320
 20
153.972370
 30
0.0
 10
-44.796120
 20
162.801800
 30
0.0
 10
-43.460800
 20
160.846360
 30
0.0
 10
-59.440330
 20
145.528340
 30
0.0
 10
-62.808450
 20
127.955350
 30
0.0
 10
-59.106350
 20
115.970550
 30
0.0
 10
-57.573630
 20
116.094580
 30
0.0
 10
-48.596400
 20
122.820780
 30
0.0
 10
-45.493450
 20
131.689630
 30
0.0
 10
-43.169340
 20
131.399070
 30
0.0
 10
-41.995250
 20
118.281520
 30
0.0
 10
-53.911840
 20
104.493220
 30
0.0
 10
-50.825720
 20
74.766868
 30
0.0
 10
-42.032460
 20
62.123705
 30
0.0
 10
-42.598830
 20
69.212675
 30
0.0
 10
-41.939440
 20
81.376278
 30
0.0
 10
-37.805330
 20
89.444008
 30
0.0
 10
-23.396910
 20
98.824310
 30
0.0
 10
-21.761860
 20
97.134490
 30
0.0
 10
-32.922940
 20
81.135468
 30
0.0
 10
-32.894040
 20
63.775285
 30
0.0
 10
-27.944470
 20
50.926455
 30
0.0
 10
-12.896300
 20
43.841615
 30
0.0
 10
-12.426040
 20
43.363095
 30
0.0
 10
-12.086010
 20
58.389565
 30
0.0
 10
-9.509420
 20
64.965915
 30
0.0
 10
4.431410
 20
82.757168
 30
0.0
 10
6.456530
 20
81.500298
 30
0.0
 10
-4.032750
 20
59.497515
 30
0.0
 10
-4.385190
 20
45.657525
 30
0.0
 10
-0.991230
 20
33.254675
 30
0.0
 10
4.587810
 20
28.323135
 30
0.0
 10
8.630040
 20
25.883025
 30
0.0
 10
14.963917
 20
25.788625
 30
0.0
 10
21.610127
 20
25.881925
 30
0.0
 10
25.653287
 20
28.325185
 30
0.0
 10
31.227107
 20
33.245815
 30
0.0
 10
34.625347
 20
45.649195
 30
0.0
 10
34.274977
 20
59.497445
 30
0.0
 10
23.783637
 20
81.503328
 30
0.0
 10
25.809347
 20
82.756998
 30
0.0
 10
39.750617
 20
64.966875
 30
0.0
 10
42.326167
 20
58.390535
 30
0.0
 10
42.666197
 20
43.365095
 30
0.0
 10
43.141627
 20
43.844655
 30
0.0
 10
58.186697
 20
50.928455
 30
0.0
 10
63.135237
 20
63.775215
 30
0.0
 10
63.164137
 20
81.137458
 30
0.0
 10
52.002027
 20
97.134420
 30
0.0
 10
53.640167
 20
98.823210
 30
0.0
 10
68.048587
 20
89.440828
 30
0.0
 10
72.180637
 20
81.374138
 30
0.0
 10
72.840027
 20
69.221915
 30
0.0
 10
72.270557
 20
62.126735
 30
0.0
 10
81.068987
 20
74.770928
 30
0.0
 10
84.153037
 20
104.493150
 30
0.0
 10
72.230247
 20
118.287650
 30
0.0
 10
73.410537
 20
131.401060
 30
0.0
 10
75.735537
 20
131.686630
 30
0.0
 10
78.836567
 20
122.824840
 30
0.0
 10
87.815907
 20
116.093960
 30
0.0
 10
89.346517
 20
115.972550
 30
0.0
 10
93.049647
 20
127.954250
 30
0.0
 10
89.677247
 20
145.532500
 30
0.0
 10
73.704057
 20
160.847330
 30
0.0
 10
75.034207
 20
162.799660
 30
0.0
 10
94.126587
 20
153.970230
 30
0.0
 10
97.737737
 20
148.858400
 30
0.0
 10
102.861937
 20
127.727080
 30
0.0
 10
96.641157
 20
114.345770
 30
0.0
 10
95.844307
 20
96.054380
 30
0.0
 10
94.664017
 20
85.220938
 30
0.0
 10
99.910207
 20
90.336908
 30
0.0
 10
103.105877
 20
105.822260
 30
0.0
 10
99.007937
 20
116.628840
 30
0.0
 10
101.054327
 20
117.817400
 30
0.0
 10
109.158227
 20
108.000940
 30
0.0
 10
109.346327
 20
97.150960
 30
0.0
 10
106.258147
 20
84.119198
 30
0.0
 10
94.701657
 20
71.069905
 30
0.0
 10
87.513357
 20
59.698425
 30
0.0
 10
71.989377
 20
40.777615
 30
0.0
 10
44.515147
 20
28.486415
 30
0.0
 10
43.980157
 20
27.017835
 30
0.0
 10
68.367457
 20
32.444865
 30
0.0
 10
70.083607
 20
29.440365
 30
0.0
 10
63.199137
 20
9.060245
 30
0.0
 10
53.858247
 20
2.803225
 30
0.0
 10
45.626187
 20
1.636375
 30
0.0
 10
40.458547
 20
-2.635205
 30
0.0
 10
40.759297
 20
-9.825455
 30
0.0
 10
39.633787
 20
-20.814965
 30
0.0
 10
46.319687
 20
-33.552175
 30
0.0
 10
50.772127
 20
-56.113075
 30
0.0
 10
37.638047
 20
-93.406915
 30
0.0
  0
LWPOLYLINE
  5
191
100
AcDbEntity
  8
Layer_1
 62
7
100
AcDbPolyline
 90
4
 70
1
 10
17.338567
 20
-107.811945
 30
0.0
 10
35.385007
 20
-92.176705
 30
0.0
 10
34.912687
 20
-85.515615
 30
0.0
 10
25.879647
 20
-76.583865
 30
0.0
  0
LWPOLYLINE
  5
192
100
AcDbEntity
  8
Layer_1
 62
7
100
AcDbPolyline
 90
4
 70
1
 10
13.067627
 20
-107.859435
 30
0.0
 10
-5.111744
 20
-92.175675
 30
0.0
 10
-4.638389
 20
-85.503215
 30
0.0
 10
4.351243
 20
-76.409195
 30
0.0
  0
LWPOLYLINE
  5
193
100
AcDbEntity
  8
Layer_1
 62
7
100
AcDbPolyline
 90
4
 70
1
 10
15.186757
 20
-106.545855
 30
0.0
 10
23.923177
 20
-74.647035
 30
0.0
 10
14.903427
 20
-65.727935
 30
0.0
 10
6.295893
 20
-74.440715
 30
0.0
  0
LWPOLYLINE
  5
194
100
AcDbEntity
  8
Layer_1
 62
7
100
AcDbPolyline
 90
4
 70
1
 10
37.407627
 20
-86.846805
 30
0.0
 10
48.253477
 20
-56.074525
 30
0.0
 10
35.855267
 20
-29.670965
 30
0.0
 10
33.686917
 20
-34.495475
 30
0.0
  0
LWPOLYLINE
  5
195
100
AcDbEntity
  8
Layer_1
 62
7
100
AcDbPolyline
 90
4
 70
1
 10
-7.138495
 20
-86.854035
 30
0.0
 10
-17.980323
 20
-56.072405
 30
0.0
 10
-5.583033
 20
-29.671995
 30
0.0
 10
-3.413656
 20
-34.494445
 30
0.0
  0
LWPOLYLINE
  5
196
100
AcDbEntity
  8
Layer_1
 62
7
100
AcDbPolyline
 90
8
 70
1
 10
34.652237
 20
-81.884835
 30
0.0
 10
31.612787
 20
-39.104345
 30
0.0
 10
22.626687
 20
-59.122825
 30
0.0
 10
15.134367
 20
-59.821485
 30
0.0
 10
7.649361
 20
-59.122825
 30
0.0
 10
-1.349896
 20
-39.098495
 30
0.0
 10
-4.376906
 20
-81.831085
 30
0.0
 10
14.869467
 20
-62.322205
 30
0.0
  0
LWPOLYLINE
  5
197
100
AcDbEntity
  8
Layer_1
 62
7
100
AcDbPolyline
 90
8
 70
1
 10
21.007587
 20
-56.862075
 30
0.0
 10
15.139217
 20
-57.417075
 30
0.0
 10
9.265667
 20
-56.865175
 30
0.0
 10
4.938287
 20
-47.229585
 30
0.0
 10
10.729147
 20
-50.575115
 30
0.0
 10
15.212597
 20
-50.648515
 30
0.0
 10
19.501737
 20
-50.576215
 30
0.0
 10
25.337047
 20
-47.225505
 30
0.0
  0
LWPOLYLINE
  5
198
100
AcDbEntity
  8
Layer_1
 62
7
100
AcDbPolyline
 90
6
 70
1
 10
18.843987
 20
-48.186915
 30
0.0
 10
18.443497
 20
-48.192915
 30
0.0
 10
23.215207
 20
-41.034775
 30
0.0
 10
21.397457
 20
-36.894515
 30
0.0
 10
21.955337
 20
-37.113565
 30
0.0
 10
25.444527
 20
-44.399945
 30
0.0
  0
LWPOLYLINE
  5
199
100
AcDbEntity
  8
Layer_1
 62
7
100
AcDbPolyline
 90
6
 70
1
 10
11.388537
 20
-48.187665
 30
0.0
 10
11.676897
 20
-48.193665
 30
0.0
 10
7.061155
 20
-41.022015
 30
0.0
 10
8.871898
 20
-36.902365
 30
0.0
 10
8.319993
 20
-37.112175
 30
0.0
 10
4.873176
 20
-44.422315
 30
0.0
  0
LWPOLYLINE
  5
19a
100
AcDbEntity
  8
Layer_1
 62
7
100
AcDbPolyline
 90
4
 70
1
 10
46.477567
 20
-46.646355
 30
0.0
 10
44.051267
 20
-34.339425
 30
0.0
 10
38.503167
 20
-23.770555
 30
0.0
 10
37.150277
 20
-26.786385
 30
0.0
  0
LWPOLYLINE
  5
19b
100
AcDbEntity
  8
Layer_1
 62
7
100
AcDbPolyline
 90
4
 70
1
 10
-16.217598
 20
-46.652195
 30
0.0
 10
-13.778137
 20
-34.333585
 30
0.0
 10
-8.233002
 20
-23.771585
 30
0.0
 10
-6.879079
 20
-26.787425
 30
0.0
  0
LWPOLYLINE
  5
19c
100
AcDbEntity
  8
Layer_1
 62
7
100
AcDbPolyline
 90
3
 70
1
 10
3.350708
 20
-41.974985
 30
0.0
 10
5.991874
 20
-36.438325
 30
0.0
 10
1.660970
 20
-32.337465
 30
0.0
  0
LWPOLYLINE
  5
19d
100
AcDbEntity
  8
Layer_1
 62
7
100
AcDbPolyline
 90
3
 70
1
 10
12.255667
 20
-35.596185
 30
0.0
 10
15.174357
 20
-34.478945
 30
0.0
 10
18.053767
 20
-35.599285
 30
0.0
  0
LWPOLYLINE
  5
19e
100
AcDbEntity
  8
Layer_1
 62
7
100
AcDbPolyline
 90
3
 70
1
 10
26.910727
 20
-41.907745
 30
0.0
 10
24.285947
 20
-36.435405
 30
0.0
 10
28.611257
 20
-32.339535
 30
0.0
  0
LWPOLYLINE
  5
19f
100
AcDbEntity
  8
Layer_1
 62
7
100
AcDbPolyline
 90
4
 70
1
 10
30.405467
 20
-35.945515
 30
0.0
 10
31.657067
 20
-28.903055
 30
0.0
 10
28.647437
 20
-18.175025
 30
0.0
 10
36.386497
 20
-22.637805
 30
0.0
  0
LWPOLYLINE
  5
1a0
100
AcDbEntity
  8
Layer_1
 62
7
100
AcDbPolyline
 90
4
 70
1
 10
-0.133236
 20
-35.942415
 30
0.0
 10
-1.384839
 20
-28.888585
 30
0.0
 10
1.787060
 20
-18.350725
 30
0.0
 10
-6.103932
 20
-22.657445
 30
0.0
  0
LWPOLYLINE
  5
1a1
100
AcDbEntity
  8
Layer_1
 62
7
100
AcDbPolyline
 90
8
 70
1
 10
7.720547
 20
-34.774535
 30
0.0
 10
15.187797
 20
-31.906485
 30
0.0
 10
22.553747
 20
-34.774535
 30
0.0
 10
29.078417
 20
-28.592995
 30
0.0
 10
25.573717
 20
-16.086265
 30
0.0
 10
15.236367
 20
-29.085985
 30
0.0
 10
4.902960
 20
-16.314605
 30
0.0
 10
1.206217
 20
-28.604365
 30
0.0
  0
LWPOLYLINE
  5
1a2
100
AcDbEntity
  8
Layer_1
 62
7
100
AcDbPolyline
 90
10
 70
1
 10
37.283597
 20
-20.386775
 30
0.0
 10
26.820157
 20
-14.369575
 30
0.0
 10
29.030877
 20
-10.515545
 30
0.0
 10
33.733427
 20
-12.861655
 30
0.0
 10
37.842737
 20
-5.920475
 30
0.0
 10
37.848737
 20
-2.625585
 30
0.0
 10
30.378397
 20
-4.270965
 30
0.0
 10
37.571757
 20
1.749335
 30
0.0
 10
38.056917
 20
-2.174795
 30
0.0
 10
38.374097
 20
-9.740195
 30
0.0
  0
LWPOLYLINE
  5
1a3
100
AcDbEntity
  8
Layer_1
 62
7
100
AcDbPolyline
 90
12
 70
1
 10
15.235337
 20
-25.220595
 30
0.0
 10
5.734106
 20
-13.534485
 30
0.0
 10
2.958992
 20
-8.681975
 30
0.0
 10
3.111008
 20
-7.434595
 30
0.0
 10
3.455176
 20
-7.181385
 30
0.0
 10
8.886368
 20
-11.236945
 30
0.0
 10
15.153687
 20
-5.922545
 30
0.0
 10
21.349687
 20
-11.198705
 30
0.0
 10
26.816017
 20
-7.175185
 30
0.0
 10
27.161217
 20
-7.436665
 30
0.0
 10
27.314187
 20
-8.684135
 30
0.0
 10
24.522627
 20
-13.556185
 30
0.0
  0
LWPOLYLINE
  5
1a4
100
AcDbEntity
  8
Layer_1
 62
7
100
AcDbPolyline
 90
10
 70
1
 10
-7.006203
 20
-20.414685
 30
0.0
 10
-8.098641
 20
-9.729035
 30
0.0
 10
-7.783991
 20
-2.166025
 30
0.0
 10
-7.298692
 20
1.753475
 30
0.0
 10
-0.108431
 20
-4.268905
 30
0.0
 10
-7.577743
 20
-2.627655
 30
0.0
 10
-7.568443
 20
-5.921515
 30
0.0
 10
-3.460165
 20
-12.861655
 30
0.0
 10
1.244457
 20
-10.517615
 30
0.0
 10
3.600903
 20
-14.627955
 30
0.0
  0
LWPOLYLINE
  5
1a5
100
AcDbEntity
  8
Layer_1
 62
7
100
AcDbPolyline
 90
6
 70
1
 10
21.641147
 20
-8.297595
 30
0.0
 10
22.925817
 20
4.049975
 30
0.0
 10
15.138187
 20
21.670605
 30
0.0
 10
7.382585
 20
4.075815
 30
0.0
 10
8.687930
 20
-8.251085
 30
0.0
 10
15.153687
 20
-2.777515
 30
0.0
  0
LWPOLYLINE
  5
1a6
100
AcDbEntity
  8
Layer_1
 62
7
100
AcDbPolyline
 90
6
 70
1
 10
24.284177
 20
-6.051035
 30
0.0
 10
26.131267
 20
-4.710265
 30
0.0
 10
37.223657
 20
4.585345
 30
0.0
 10
37.126557
 20
5.339815
 30
0.0
 10
37.550297
 20
17.445535
 30
0.0
 10
27.544707
 20
25.221805
 30
0.0
  0
LWPOLYLINE
  5
1a7
100
AcDbEntity
  8
Layer_1
 62
7
100
AcDbPolyline
 90
3
 70
1
 10
40.173347
 20
0.250725
 30
0.0
 10
42.397497
 20
2.090405
 30
0.0
 10
39.879827
 20
2.553425
 30
0.0
  0
LWPOLYLINE
  5
1a8
100
AcDbEntity
  8
Layer_1
 62
7
100
AcDbPolyline
 90
8
 70
1
 10
39.578677
 20
5.048585
 30
0.0
 10
45.163217
 20
4.011735
 30
0.0
 10
52.997897
 20
5.121665
 30
0.0
 10
61.206687
 20
10.623215
 30
0.0
 10
66.752607
 20
27.045985
 30
0.0
 10
48.699957
 20
18.517305
 30
0.0
 10
39.582167
 20
6.970725
 30
0.0
 10
39.528467
 20
5.451435
 30
0.0
  0
LWPOLYLINE
  5
1a9
100
AcDbEntity
  8
Layer_1
 62
7
100
AcDbPolyline
 90
4
 70
1
 10
23.426047
 20
8.845545
 30
0.0
 10
25.134477
 20
25.220775
 30
0.0
 10
22.308807
 20
23.517515
 30
0.0
 10
16.976827
 20
23.441015
 30
0.0
  0
LWPOLYLINE
  5
1aa
100
AcDbEntity
  8
Layer_1
 62
7
100
AcDbPolyline
 90
4
 70
1
 10
6.874087
 20
8.872415
 30
0.0
 10
5.146027
 20
25.199065
 30
0.0
 10
7.891079
 20
23.516485
 30
0.0
 10
13.298497
 20
23.439985
 30
0.0
  0
LWPOLYLINE
  5
1ab
100
AcDbEntity
  8
Layer_1
 62
7
100
AcDbPolyline
 90
6
 70
1
 10
6.048878
 20
-6.124115
 30
0.0
 10
4.186759
 20
-4.738495
 30
0.0
 10
-6.948325
 20
4.583275
 30
0.0
 10
-6.852205
 20
5.349115
 30
0.0
 10
-7.280083
 20
17.448635
 30
0.0
 10
2.730673
 20
25.223875
 30
0.0
  0
LWPOLYLINE
  5
1ac
100
AcDbEntity
  8
Layer_1
 62
7
100
AcDbPolyline
 90
3
 70
1
 10
-9.900432
 20
0.250055
 30
0.0
 10
-9.615863
 20
2.549295
 30
0.0
 10
-12.122168
 20
2.085235
 30
0.0
  0
LWPOLYLINE
  5
1ad
100
AcDbEntity
  8
Layer_1
 62
7
100
AcDbPolyline
 90
8
 70
1
 10
-9.307872
 20
5.047325
 30
0.0
 10
-9.256192
 20
5.451435
 30
0.0
 10
-9.311392
 20
6.970625
 30
0.0
 10
-18.380806
 20
18.494125
 30
0.0
 10
-36.481401
 20
27.045985
 30
0.0
 10
-30.935486
 20
10.624245
 30
0.0
 10
-22.721002
 20
5.120705
 30
0.0
 10
-14.890989
 20
4.011735
 30
0.0
  0
LWPOLYLINE
  5
1ae
100
AcDbEntity
  8
Layer_1
 62
7
100
AcDbPolyline
 90
4
 70
1
 10
-9.451712
 20
11.029575
 30
0.0
 10
-9.686141
 20
17.736995
 30
0.0
 10
-12.692146
 20
24.356715
 30
0.0
 10
-21.490071
 20
26.311145
 30
0.0
  0
LWPOLYLINE
  5
1af
100
AcDbEntity
  8
Layer_1
 62
7
100
AcDbPolyline
 90
3
 70
1
 10
-21.712282
 20
22.720665
 30
0.0
 10
-25.187004
 20
27.133835
 30
0.0
 10
-36.265397
 20
29.598805
 30
0.0
  0
LWPOLYLINE
  5
1b0
100
AcDbEntity
  8
Layer_1
 62
7
100
AcDbPolyline
 90
4
 70
1
 10
39.723757
 20
11.020085
 30
0.0
 10
39.959407
 20
17.736995
 30
0.0
 10
42.962837
 20
24.354675
 30
0.0
 10
51.809847
 20
26.322515
 30
0.0
  0
LWPOLYLINE
  5
1b1
100
AcDbEntity
  8
Layer_1
 62
7
100
AcDbPolyline
 90
3
 70
1
 10
52.043457
 20
22.750385
 30
0.0
 10
66.546927
 20
29.600865
 30
0.0
 10
55.512977
 20
27.147275
 30
0.0
  0
LWPOLYLINE
  5
1b2
100
AcDbEntity
  8
Layer_1
 62
7
100
AcDbPolyline
 90
5
 70
1
 10
37.836407
 20
20.264155
 30
0.0
 10
40.279797
 20
40.044675
 30
0.0
 10
36.491917
 20
43.363335
 30
0.0
 10
33.365497
 20
31.943875
 30
0.0
 10
28.421097
 20
27.578255
 30
0.0
  0
LWPOLYLINE
  5
1b3
100
AcDbEntity
  8
Layer_1
 62
7
100
AcDbPolyline
 90
6
 70
1
 10
40.921907
 20
25.666345
 30
0.0
 10
41.008107
 20
25.847585
 30
0.0
 10
42.632067
 20
30.288165
 30
0.0
 10
61.988347
 20
38.946715
 30
0.0
 10
44.286747
 20
41.591865
 30
0.0
 10
42.687887
 20
39.977495
 30
0.0
  0
LWPOLYLINE
  5
1b4
100
AcDbEntity
  8
Layer_1
 62
7
100
AcDbPolyline
 90
5
 70
1
 10
40.286107
 20
43.230745
 30
0.0
 10
39.953207
 20
57.934025
 30
0.0
 10
38.411177
 20
61.874865
 30
0.0
 10
36.689317
 20
59.436775
 30
0.0
 10
37.029357
 20
46.082545
 30
0.0
  0
LWPOLYLINE
  5
1b5
100
AcDbEntity
  8
Layer_1
 62
7
100
AcDbPolyline
 90
3
 70
1
 10
35.681627
 20
62.167355
 30
0.0
 10
37.221587
 20
64.349135
 30
0.0
 10
30.644207
 20
72.742415
 30
0.0
  0
LWPOLYLINE
  5
1b6
100
AcDbEntity
  8
Layer_1
 62
7
100
AcDbPolyline
 90
5
 70
1
 10
64.326907
 20
41.024455
 30
0.0
 10
69.366397
 20
57.437925
 30
0.0
 10
64.840577
 20
61.516235
 30
0.0
 10
60.093577
 20
49.187265
 30
0.0
 10
47.952717
 20
43.471855
 30
0.0
  0
LWPOLYLINE
  5
1b7
100
AcDbEntity
  8
Layer_1
 62
7
100
AcDbPolyline
 90
4
 70
1
 10
66.869387
 20
41.129875
 30
0.0
 10
70.515537
 20
42.760105
 30
0.0
 10
83.841997
 20
58.996485
 30
0.0
 10
71.670127
 20
56.771305
 30
0.0
  0
LWPOLYLINE
  5
1b8
100
AcDbEntity
  8
Layer_1
 62
7
100
AcDbPolyline
 90
4
 70
1
 10
69.736397
 20
60.338005
 30
0.0
 10
70.451597
 20
69.268725
 30
0.0
 10
70.103357
 20
75.718405
 30
0.0
 10
65.752087
 20
63.918665
 30
0.0
  0
LWPOLYLINE
  5
1b9
100
AcDbEntity
  8
Layer_1
 62
7
100
AcDbPolyline
 90
5
 70
1
 10
73.374417
 20
59.517385
 30
0.0
 10
85.289967
 20
61.699165
 30
0.0
 10
91.944857
 20
82.294290
 30
0.0
 10
92.986647
 20
91.810953
 30
0.0
 10
83.395517
 20
73.934079
 30
0.0
  0
LWPOLYLINE
  5
1ba
100
AcDbEntity
  8
Layer_1
 62
7
100
AcDbPolyline
 90
3
 70
1
 10
65.545997
 20
70.330835
 30
0.0
 10
68.934057
 20
79.489411
 30
0.0
 10
65.575417
 20
80.097010
 30
0.0
  0
LWPOLYLINE
  5
1bb
100
AcDbEntity
  8
Layer_1
 62
7
100
AcDbPolyline
 90
4
 70
1
 10
69.259937
 20
81.867443
 30
0.0
 10
66.218267
 20
87.801965
 30
0.0
 10
57.508717
 20
93.473971
 30
0.0
 10
65.076217
 20
82.628120
 30
0.0
  0
LWPOLYLINE
  5
1bc
100
AcDbEntity
  8
Layer_1
 62
7
100
AcDbPolyline
 90
3
 70
1
 10
84.063177
 20
80.279943
 30
0.0
 10
88.757457
 20
89.001893
 30
0.0
 10
85.992767
 20
98.845219
 30
0.0
  0
LWPOLYLINE
  5
1bd
100
AcDbEntity
  8
Layer_1
 62
7
100
AcDbPolyline
 90
6
 70
1
 10
90.390787
 20
92.047737
 30
0.0
 10
92.890537
 20
96.693413
 30
0.0
 10
89.240117
 20
113.597806
 30
0.0
 10
86.912607
 20
113.807612
 30
0.0
 10
76.959737
 20
116.521658
 30
0.0
 10
86.650097
 20
105.327510
 30
0.0
  0
LWPOLYLINE
  5
1be
100
AcDbEntity
  8
Layer_1
 62
7
100
AcDbPolyline
 90
4
 70
1
 10
93.807287
 20
103.810291
 30
0.0
 10
94.280637
 20
114.949662
 30
0.0
 10
97.274767
 20
121.381310
 30
0.0
 10
91.519047
 20
114.407060
 30
0.0
  0
LWPOLYLINE
  5
1bf
100
AcDbEntity
  8
Layer_1
 62
7
100
AcDbPolyline
 90
4
 70
1
 10
81.667457
 20
117.733989
 30
0.0
 10
76.828477
 20
121.363742
 30
0.0
 10
75.318487
 20
125.681824
 30
0.0
 10
74.774847
 20
119.597439
 30
0.0
  0
LWPOLYLINE
  5
1c0
100
AcDbEntity
  8
Layer_1
 62
7
100
AcDbPolyline
 90
4
 70
1
 10
93.163397
 20
120.172082
 30
0.0
 10
99.743867
 20
128.147822
 30
0.0
 10
93.329787
 20
139.331635
 30
0.0
 10
95.534267
 20
127.837215
 30
0.0
  0
LWPOLYLINE
  5
1c1
100
AcDbEntity
  8
Layer_1
 62
7
100
AcDbPolyline
 90
5
 70
1
 10
98.703077
 20
134.785805
 30
0.0
 10
95.532237
 20
147.868582
 30
0.0
 10
92.550507
 20
152.086413
 30
0.0
 10
80.564677
 20
157.630260
 30
0.0
 10
91.909727
 20
146.696561
 30
0.0
  0
LWPOLYLINE
  5
1c2
100
AcDbEntity
  8
Layer_1
 62
7
100
AcDbPolyline
 90
5
 70
1
 10
89.749647
 20
67.727735
 30
0.0
 10
92.811997
 20
72.553285
 30
0.0
 10
104.080557
 20
85.281190
 30
0.0
 10
105.965707
 20
93.233157
 30
0.0
 10
94.170047
 20
81.389952
 30
0.0
  0
LWPOLYLINE
  5
1c3
100
AcDbEntity
  8
Layer_1
 62
7
100
AcDbPolyline
 90
5
 70
1
 10
-7.567408
 20
20.280505
 30
0.0
 10
1.853206
 20
27.578255
 30
0.0
 10
-3.096363
 20
31.944915
 30
0.0
 10
-6.221753
 20
43.362305
 30
0.0
 10
-10.009637
 20
40.044675
 30
0.0
  0
LWPOLYLINE
  5
1c4
100
AcDbEntity
  8
Layer_1
 62
7
100
AcDbPolyline
 90
6
 70
1
 10
-10.651709
 20
25.660495
 30
0.0
 10
-10.730009
 20
25.833655
 30
0.0
 10
-12.357816
 20
30.288165
 30
0.0
 10
-31.712340
 20
38.946715
 30
0.0
 10
-14.009395
 20
41.594965
 30
0.0
 10
-12.414659
 20
39.977495
 30
0.0
  0
LWPOLYLINE
  5
1c5
100
AcDbEntity
  8
Layer_1
 62
7
100
AcDbPolyline
 90
5
 70
1
 10
-10.014439
 20
43.243905
 30
0.0
 10
-6.755002
 20
46.083855
 30
0.0
 10
-6.418124
 20
59.435735
 30
0.0
 10
-8.137916
 20
61.872795
 30
0.0
 10
-9.682008
 20
57.931955
 30
0.0
  0
LWPOLYLINE
  5
1c6
100
AcDbEntity
  8
Layer_1
 62
7
100
AcDbPolyline
 90
3
 70
1
 10
-5.413226
 20
62.169095
 30
0.0
 10
-0.368882
 20
72.741385
 30
0.0
 10
-6.946476
 20
64.349845
 30
0.0
  0
LWPOLYLINE
  5
1c7
100
AcDbEntity
  8
Layer_1
 62
7
100
AcDbPolyline
 90
6
 70
1
 10
-17.690922
 20
43.477765
 30
0.0
 10
-29.822451
 20
49.195665
 30
0.0
 10
-34.567311
 20
61.514165
 30
0.0
 10
-39.103468
 20
57.430695
 30
0.0
 10
-34.315129
 20
40.983115
 30
0.0
 10
-17.676351
 20
43.470825
 30
0.0
  0
LWPOLYLINE
  5
1c8
100
AcDbEntity
  8
Layer_1
 62
7
100
AcDbPolyline
 90
4
 70
1
 10
-36.893782
 20
41.263205
 30
0.0
 10
-41.405137
 20
56.763035
 30
0.0
 10
-53.406470
 20
58.800115
 30
0.0
 10
-40.239317
 20
42.759755
 30
0.0
  0
LWPOLYLINE
  5
1c9
100
AcDbEntity
  8
Layer_1
 62
7
100
AcDbPolyline
 90
4
 70
1
 10
-35.474748
 20
63.925385
 30
0.0
 10
-39.810401
 20
76.088986
 30
0.0
 10
-40.179563
 20
69.272615
 30
0.0
 10
-39.464169
 20
60.334905
 30
0.0
  0
LWPOLYLINE
  5
1ca
100
AcDbEntity
  8
Layer_1
 62
7
100
AcDbPolyline
 90
3
 70
1
 10
-35.287679
 20
70.543075
 30
0.0
 10
-35.302149
 20
80.129049
 30
0.0
 10
-38.526758
 20
79.616419
 30
0.0
  0
LWPOLYLINE
  5
1cb
100
AcDbEntity
  8
Layer_1
 62
7
100
AcDbPolyline
 90
4
 70
1
 10
-34.796753
 20
82.639490
 30
0.0
 10
-27.236491
 20
93.472936
 30
0.0
 10
-35.949138
 20
87.799899
 30
0.0
 10
-38.930867
 20
81.980098
 30
0.0
  0
LWPOLYLINE
  5
1cc
100
AcDbEntity
  8
Layer_1
 62
7
100
AcDbPolyline
 90
5
 70
1
 10
-43.080486
 20
59.480175
 30
0.0
 10
-53.138376
 20
73.964448
 30
0.0
 10
-62.714430
 20
91.803788
 30
0.0
 10
-61.671373
 20
82.291356
 30
0.0
 10
-55.217212
 20
61.537935
 30
0.0
  0
LWPOLYLINE
  5
1cd
100
AcDbEntity
  8
Layer_1
 62
7
100
AcDbPolyline
 90
6
 70
1
 10
-59.814348
 20
68.244505
 30
0.0
 10
-63.907669
 20
81.401224
 30
0.0
 10
-71.858057
 20
89.168290
 30
0.0
 10
-75.691415
 20
93.234192
 30
0.0
 10
-73.808325
 20
85.281190
 30
0.0
 10
-62.534595
 20
72.548115
 30
0.0
  0
LWPOLYLINE
  5
1ce
100
AcDbEntity
  8
Layer_1
 62
7
100
AcDbPolyline
 90
6
 70
1
 10
-72.779763
 20
93.655530
 30
0.0
 10
-75.337948
 20
106.044780
 30
0.0
 10
-73.563379
 20
110.720462
 30
0.0
 10
-76.518237
 20
107.143420
 30
0.0
 10
-76.682568
 20
97.768282
 30
0.0
 10
-72.777897
 20
93.642436
 30
0.0
  0
LWPOLYLINE
  5
1cf
100
AcDbEntity
  8
Layer_1
 62
7
100
AcDbPolyline
 90
6
 70
1
 10
-60.077896
 20
91.970187
 30
0.0
 10
-56.344792
 20
105.255162
 30
0.0
 10
-46.683365
 20
116.522692
 30
0.0
 10
-56.671386
 20
113.810713
 30
0.0
 10
-58.964786
 20
113.597806
 30
0.0
 10
-62.571737
 20
96.596332
 30
0.0
  0
LWPOLYLINE
  5
1d0
100
AcDbEntity
  8
Layer_1
 62
7
100
AcDbPolyline
 90
3
 70
1
 10
-53.789909
 20
80.276842
 30
0.0
 10
-55.693669
 20
98.603374
 30
0.0
 10
-58.448023
 20
88.933678
 30
0.0
  0
LWPOLYLINE
  5
1d1
100
AcDbEntity
  8
Layer_1
 62
7
100
AcDbPolyline
 90
4
 70
1
 10
-63.527817
 20
103.643892
 30
0.0
 10
-61.242685
 20
114.408092
 30
0.0
 10
-67.026310
 20
121.439188
 30
0.0
 10
-64.008406
 20
114.943461
 30
0.0
  0
LWPOLYLINE
  5
1d2
100
AcDbEntity
  8
Layer_1
 62
7
100
AcDbPolyline
 90
4
 70
1
 10
-51.396113
 20
117.740273
 30
0.0
 10
-44.500553
 20
119.597439
 30
0.0
 10
-45.046256
 20
125.682856
 30
0.0
 10
-46.557275
 20
121.360641
 30
0.0
  0
LWPOLYLINE
  5
1d3
100
AcDbEntity
  8
Layer_1
 62
7
100
AcDbPolyline
 90
4
 70
1
 10
-62.897683
 20
120.194350
 30
0.0
 10
-65.262077
 20
127.841898
 30
0.0
 10
-63.099935
 20
139.104260
 30
0.0
 10
-69.317643
 20
128.002095
 30
0.0
  0
LWPOLYLINE
  5
1d4
100
AcDbEntity
  8
Layer_1
 62
7
100
AcDbPolyline
 90
5
 70
1
 10
-68.555933
 20
134.274580
 30
0.0
 10
-61.607519
 20
146.727568
 30
0.0
 10
-50.282352
 20
157.632547
 30
0.0
 10
-62.280873
 20
152.087121
 30
0.0
 10
-65.261044
 20
147.865482
 30
0.0
  0
LWPOLYLINE
  5
1d5
100
AcDbEntity
  8
Layer_1
 62
7
100
AcDbPolyline
 90
5
 70
1
 10
103.051427
 20
93.646762
 30
0.0
 10
106.959827
 20
97.768558
 30
0.0
 10
106.791507
 20
107.142388
 30
0.0
 10
103.836647
 20
110.721496
 30
0.0
 10
105.611217
 20
106.042713
 30
0.0
  0
ENDSEC
  0
SECTION
  2
OBJECTS
  0
DICTIONARY
  5
C
330
0
100
AcDbDictionary
  3
ACAD_GROUP
350
D
  3
ACAD_MLINESTYLE
350
17
  0
DICTIONARY
  5
D
330
C
100
AcDbDictionary
  0
DICTIONARY
  5
1A
330
C
100
AcDbDictionary
  0
DICTIONARY
  5
17
330
C
100
AcDbDictionary
  3
STANDARD
350
18
  0
DICTIONARY
  5
19
330
C
100
AcDbDictionary
  0
ENDSEC
  0
EOF
